<svg xmlns="http://www.w3.org/2000/svg" width="113.969" height="19.222" viewBox="0 0 113.969 19.222">
  <g id="digitalocean-horizontal" transform="translate(-0.741 -0.448)">
    <path id="Path_44" data-name="Path 44" d="M10.353,19.669V15.946a5.912,5.912,0,0,0,5.489-8.054,5.584,5.584,0,0,0-3.324-3.324,5.912,5.912,0,0,0-8.054,5.489H.741A9.648,9.648,0,0,1,13.411.921,9.246,9.246,0,0,1,19.47,6.981a9.646,9.646,0,0,1-9.118,12.689Z" transform="translate(0 0)" fill="#0080ff"/>
    <path id="Path_45" data-name="Path 45" d="M7.713,31.128h3.7v3.7h-3.7ZM4.864,37.682V34.832H7.713v2.849ZM2.47,32.458H4.864v2.374H2.47Z" transform="translate(-1.065 -18.886)" fill="#0080ff" fill-rule="evenodd"/>
    <path id="Path_46" data-name="Path 46" d="M77.6,13.066a7.024,7.024,0,0,0-4.065-1.159H70.063V22.944h3.476A6.656,6.656,0,0,0,77.6,21.728a4.084,4.084,0,0,0,1.406-1.767,6.489,6.489,0,0,0,.494-2.6,6.459,6.459,0,0,0-.494-2.583,3.918,3.918,0,0,0-1.406-1.71Zm-5.508.722h1.1a5.772,5.772,0,0,1,2.982.7,3.114,3.114,0,0,1,1.273,2.868,3.342,3.342,0,0,1-1.273,3,5.384,5.384,0,0,1-2.963.722h-1.1V13.788Z" transform="translate(-42.673 -7.054)" fill="#0080ff"/>
    <path id="Path_47" data-name="Path 47" d="M99,11.562a1.2,1.2,0,0,0-1.216,1.178,1.107,1.107,0,0,0,.361.855,1.176,1.176,0,0,0,.855.361,1.107,1.107,0,0,0,.855-.361,1.208,1.208,0,0,0,.361-.855,1.041,1.041,0,0,0-.361-.836A1.19,1.19,0,0,0,99,11.562Z" transform="translate(-59.735 -6.842)" fill="#0080ff"/>
    <path id="Path_48" data-name="Path 48" d="M98.326,20.1h1.956V27.89H98.326Zm9.08.646a2.923,2.923,0,0,0-1.956-.836,3.594,3.594,0,0,0-2.678,1.1,3.859,3.859,0,0,0-1.045,2.792,3.952,3.952,0,0,0,1.045,2.792,3.594,3.594,0,0,0,2.678,1.1,3.04,3.04,0,0,0,1.937-.627v.19a2.084,2.084,0,0,1-.513,1.5,1.909,1.909,0,0,1-1.406.513,2.492,2.492,0,0,1-2.165-1.292l-1.33,1.273.038.057a4.766,4.766,0,0,0,1.311,1.178,3.934,3.934,0,0,0,2.184.57A3.751,3.751,0,0,0,108.3,30a3.829,3.829,0,0,0,1.045-2.83V20.1h-1.918v.646Zm-.513,4.6a1.71,1.71,0,0,1-1.349.57,1.644,1.644,0,0,1-1.33-.57,2.2,2.2,0,0,1-.513-1.52,2.247,2.247,0,0,1,.513-1.539,1.712,1.712,0,0,1,1.33-.589,1.665,1.665,0,0,1,1.349.589,2.247,2.247,0,0,1,.513,1.539A2.292,2.292,0,0,1,106.893,25.345ZM111,20.1h1.956V27.89H111Z" transform="translate(-60.07 -11.982)" fill="#0080ff"/>
    <path id="Path_49" data-name="Path 49" d="M99,11.562a1.2,1.2,0,0,0-1.216,1.178,1.107,1.107,0,0,0,.361.855,1.176,1.176,0,0,0,.855.361,1.107,1.107,0,0,0,.855-.361,1.208,1.208,0,0,0,.361-.855,1.041,1.041,0,0,0-.361-.836A1.19,1.19,0,0,0,99,11.562Z" transform="translate(-47.066 -6.842)" fill="#0080ff"/>
    <path id="Path_50" data-name="Path 50" d="M142.672,12.781h-1.918V14.89h-1.121v1.786h1.121V19.9a3.083,3.083,0,0,0,.608,2.146,2.853,2.853,0,0,0,2.108.627c.323,0,.646-.019.95-.038h.095V20.854l-.665.038a1.242,1.242,0,0,1-.931-.247,1.623,1.623,0,0,1-.228-1.026V16.656h1.824V14.871h-1.824V12.781Zm11-1.178h1.956V22.64H153.67Zm21.73,8.263a4.643,4.643,0,0,1-.988.912,1.845,1.845,0,0,1-1.007.266,1.8,1.8,0,0,1-1.425-.646,2.689,2.689,0,0,1-.019-3.286,1.764,1.764,0,0,1,1.406-.646,2.622,2.622,0,0,1,1.861,1.064l1.292-1.235a3.841,3.841,0,0,0-3.21-1.615,3.8,3.8,0,0,0-2.773,1.159,3.966,3.966,0,0,0-1.14,2.906,4,4,0,0,0,1.14,2.906,3.73,3.73,0,0,0,2.773,1.159,3.84,3.84,0,0,0,3.324-1.729L175.4,19.866Zm8.035-3.913a3.17,3.17,0,0,0-1.121-.931,3.666,3.666,0,0,0-1.615-.342,3.3,3.3,0,0,0-2.659,1.2,4.5,4.5,0,0,0-.988,2.925,4.049,4.049,0,0,0,1.083,2.906,3.762,3.762,0,0,0,2.83,1.121,3.849,3.849,0,0,0,3.21-1.6l.038-.057-1.273-1.235a4.845,4.845,0,0,1-.437.456,2.18,2.18,0,0,1-.57.418,2.1,2.1,0,0,1-.988.209,1.841,1.841,0,0,1-1.33-.475,1.688,1.688,0,0,1-.551-1.178h5.186l.019-.722a5.1,5.1,0,0,0-.209-1.444,4.31,4.31,0,0,0-.627-1.254ZM179.161,17.8a1.944,1.944,0,0,1,.513-.931,1.388,1.388,0,0,1,1.026-.4,1.406,1.406,0,0,1,1.083.4,1.543,1.543,0,0,1,.4.912h-3.02Zm11.8-2.336a3.586,3.586,0,0,0-2.431-.76,4.129,4.129,0,0,0-1.8.418,3.231,3.231,0,0,0-1.33,1.254l.019.019,1.254,1.2a2,2,0,0,1,1.842-1.1,1.56,1.56,0,0,1,1.007.323,1,1,0,0,1,.38.836v.38a4.864,4.864,0,0,0-1.444-.228,3.771,3.771,0,0,0-2.355.684,2.339,2.339,0,0,0-.893,1.937,2.22,2.22,0,0,0,.76,1.767,2.894,2.894,0,0,0,1.88.646,3.277,3.277,0,0,0,2.07-.817v.646h1.918V17.644A2.581,2.581,0,0,0,190.957,15.46Zm-3.476,4.217a1.645,1.645,0,0,1,.931-.228,4.259,4.259,0,0,1,1.482.285v.76a2.352,2.352,0,0,1-1.691.589,1.155,1.155,0,0,1-.779-.228.712.712,0,0,1-.266-.57A.732.732,0,0,1,187.481,19.676Zm11.91-4.065a2.921,2.921,0,0,0-2.279-.912,2.673,2.673,0,0,0-1.88.665V14.89h-1.918v7.788h1.956V18.366a2.051,2.051,0,0,1,.418-1.387,1.383,1.383,0,0,1,1.159-.494,1.292,1.292,0,0,1,1.026.437,1.861,1.861,0,0,1,.38,1.216v4.5h1.956v-4.5a3.643,3.643,0,0,0-.817-2.526Zm-48.171-.152a3.586,3.586,0,0,0-2.431-.76,4.129,4.129,0,0,0-1.8.418,3.231,3.231,0,0,0-1.33,1.254l.019.019,1.254,1.2a2,2,0,0,1,1.842-1.1,1.56,1.56,0,0,1,1.007.323,1,1,0,0,1,.38.836v.38a4.864,4.864,0,0,0-1.444-.228,3.771,3.771,0,0,0-2.355.684,2.339,2.339,0,0,0-.893,1.937,2.22,2.22,0,0,0,.76,1.767,2.894,2.894,0,0,0,1.88.646,3.277,3.277,0,0,0,2.07-.817v.646h1.918V17.644a2.693,2.693,0,0,0-.874-2.184Zm-3.476,4.217a1.645,1.645,0,0,1,.931-.228,4.259,4.259,0,0,1,1.482.285v.76a2.352,2.352,0,0,1-1.691.589,1.155,1.155,0,0,1-.779-.228.712.712,0,0,1-.266-.57.688.688,0,0,1,.323-.608Zm14.987,3.134a5.7,5.7,0,1,1,5.7-5.7A5.7,5.7,0,0,1,162.73,22.811Zm0-9.364a3.685,3.685,0,1,0,3.685,3.685,3.688,3.688,0,0,0-3.685-3.685Z" transform="translate(-85.497 -6.75)" fill="#0080ff"/>
  </g>
</svg>
