<svg xmlns="http://www.w3.org/2000/svg" width="113.969" height="19.772" viewBox="0 0 113.969 19.772">
  <g id="google" transform="translate(0 0.001)">
    <path id="Path_37" data-name="Path 37" d="M88.243,15.588a6.887,6.887,0,0,1-7.043-7.1,6.862,6.862,0,0,1,2-5.025,6.8,6.8,0,0,1,5.041-2.043,6.277,6.277,0,0,1,4.943,2.216L91.974,4.846a4.646,4.646,0,0,0-3.732-1.763A5.124,5.124,0,0,0,84.478,4.6a5.256,5.256,0,0,0-1.5,3.888,5.256,5.256,0,0,0,1.5,3.9,5.091,5.091,0,0,0,3.765,1.516,5.305,5.305,0,0,0,4.119-1.994L93.63,13.15a6.59,6.59,0,0,1-2.364,1.788,7.142,7.142,0,0,1-3.023.651ZM96.785,1.724V15.292H95.039V1.724Zm1.5,8.921A4.943,4.943,0,0,1,99.635,7.1a4.588,4.588,0,0,1,3.427-1.4,4.539,4.539,0,0,1,3.41,1.4,4.877,4.877,0,0,1,1.359,3.542,4.836,4.836,0,0,1-1.359,3.542,4.506,4.506,0,0,1-3.41,1.4,4.555,4.555,0,0,1-3.427-1.4,4.943,4.943,0,0,1-1.351-3.542Zm1.746,0a3.377,3.377,0,0,0,.873,2.422,2.966,2.966,0,0,0,4.317,0,3.377,3.377,0,0,0,.873-2.422,3.353,3.353,0,0,0-.873-2.405,2.933,2.933,0,0,0-4.317,0,3.353,3.353,0,0,0-.873,2.405Zm17.439,4.646h-1.648V14h-.082a3.089,3.089,0,0,1-1.219,1.137,3.484,3.484,0,0,1-1.713.453,3.443,3.443,0,0,1-2.628-.972,3.9,3.9,0,0,1-.914-2.776V6.016H111v5.717a2.051,2.051,0,0,0,2.3,2.274,2.167,2.167,0,0,0,1.738-.824,3.04,3.04,0,0,0,.7-2.018V6.016h1.746Zm5.9.3a4.118,4.118,0,0,1-3.121-1.433,5.14,5.14,0,0,1-1.319-3.51,5.107,5.107,0,0,1,1.285-3.5A4.069,4.069,0,0,1,123.335,5.7a3.938,3.938,0,0,1,1.87.437,3.3,3.3,0,0,1,1.3,1.153h.074l-.041-1.277V1.724h1.738V15.292H126.63V14h-.074a3.3,3.3,0,0,1-1.3,1.153,3.938,3.938,0,0,1-1.886.437Zm.288-1.59a2.644,2.644,0,0,0,2.1-.931,3.435,3.435,0,0,0,.824-2.422,3.468,3.468,0,0,0-.824-2.405,2.661,2.661,0,0,0-2.1-.947,2.71,2.71,0,0,0-2.1.947,3.468,3.468,0,0,0-.824,2.405,3.41,3.41,0,0,0,.824,2.405,2.71,2.71,0,0,0,2.1.947Z" transform="translate(-14.309 -0.25)" fill="#fff"/>
    <g id="_75x24px" data-name="75x24px" transform="translate(0 -0.001)">
      <path id="Path_38" data-name="Path 38" d="M7.818,15.338A7.793,7.793,0,0,1,0,7.669,7.793,7.793,0,0,1,7.818,0,7.34,7.34,0,0,1,13.1,2.117L11.607,3.591a5.363,5.363,0,0,0-3.789-1.5A5.511,5.511,0,0,0,2.29,7.669a5.511,5.511,0,0,0,5.528,5.577,5.149,5.149,0,0,0,3.888-1.54,4.333,4.333,0,0,0,1.145-2.644H7.818V6.977H14.9a6.9,6.9,0,0,1,.107,1.31A6.9,6.9,0,0,1,13.18,13.18,7.06,7.06,0,0,1,7.818,15.338Z" transform="translate(0 0.001)" fill="#4285f4"/>
      <path id="Path_39" data-name="Path 39" d="M29.427,11.53a4.893,4.893,0,1,1-9.778,0,4.893,4.893,0,1,1,9.778,0Zm-2.142,0a2.76,2.76,0,1,0-5.495,0,2.76,2.76,0,1,0,5.495,0Z" transform="translate(-3.462 -1.133)" fill="#ea4335"/>
      <path id="Path_40" data-name="Path 40" d="M42.737,11.53a4.893,4.893,0,1,1-9.778,0,4.893,4.893,0,1,1,9.778,0Zm-2.142,0a2.76,2.76,0,1,0-5.5,0,2.76,2.76,0,1,0,5.5,0Z" transform="translate(-5.808 -1.133)" fill="#fbbc04"/>
      <path id="Path_41" data-name="Path 41" d="M55.72,6.933V15.8c0,3.641-2.167,5.14-4.72,5.14a4.737,4.737,0,0,1-4.4-2.916l1.9-.824a2.735,2.735,0,0,0,2.471,1.763c1.648,0,2.653-1.013,2.653-2.9v-.708h-.049a3.427,3.427,0,0,1-2.636,1.153,4.943,4.943,0,1,1,0-9.885,3.476,3.476,0,0,1,2.636,1.137h.074V6.933ZM53.8,11.6A2.793,2.793,0,0,0,51.149,8.58a2.867,2.867,0,0,0-2.76,3.015,2.842,2.842,0,0,0,2.76,2.974A2.76,2.76,0,0,0,53.8,11.587Z" transform="translate(-8.107 -1.165)" fill="#4285f4"/>
      <path id="Path_42" data-name="Path 42" d="M61.965.64V15.155H59.79V.64Z" transform="translate(-10.537 -0.112)" fill="#34a853"/>
      <path id="Path_43" data-name="Path 43" d="M71.27,13.2l1.7,1.153a4.943,4.943,0,0,1-4.119,2.191A4.786,4.786,0,0,1,64,11.6a4.547,4.547,0,0,1,8.856-1.8l.222.568L66.484,13.1a2.529,2.529,0,0,0,2.405,1.5A2.834,2.834,0,0,0,71.27,13.2Zm-5.2-1.779L70.5,9.593a1.928,1.928,0,0,0-1.845-1.005,2.71,2.71,0,0,0-2.587,2.834Z" transform="translate(-11.275 -1.173)" fill="#ea4335"/>
    </g>
  </g>
</svg>
