<svg xmlns="http://www.w3.org/2000/svg" width="19" height="12.225" viewBox="0 0 19 12.225">
  <g id="Group_507" data-name="Group 507" transform="translate(-713 -449.388)">
    <path id="Rectangle_1072" data-name="Rectangle 1072" d="M5.5,2.223A3.715,3.715,0,0,0,2,6.112,3.715,3.715,0,0,0,5.5,10h8A3.715,3.715,0,0,0,17,6.112a3.715,3.715,0,0,0-3.5-3.89h-8M5.5,0h8C16.538,0,19,2.737,19,6.112s-2.462,6.112-5.5,6.112h-8C2.462,12.225,0,9.488,0,6.112S2.462,0,5.5,0Z" transform="translate(713 449.388)" fill="#b576ff" opacity="0.999"/>
    <circle id="Ellipse_19" data-name="Ellipse 19" cx="2.5" cy="2.5" r="2.5" transform="translate(717 453)" fill="#b676ff"/>
  </g>
</svg>
