<svg xmlns="http://www.w3.org/2000/svg" width="17.338" height="17.338" viewBox="0 0 17.338 17.338">
  <g id="Group_506" data-name="Group 506" transform="translate(-24.332 -278.656)">
    <path id="Union_1" data-name="Union 1" d="M22063.5,8389v-2.5h-2.5v-2h2.5V8382h2v2.5h2.5v2h-2.5v2.5Z" transform="translate(-22031.5 -8098)" fill="#009e77"/>
    <path id="Icon_material-check-box-outline-blank" data-name="Icon material-check-box-outline-blank" d="M19.912,6.426V19.912H6.426V6.426H19.912m0-1.926H6.426A1.932,1.932,0,0,0,4.5,6.426V19.912a1.932,1.932,0,0,0,1.926,1.926H19.912a1.932,1.932,0,0,0,1.926-1.926V6.426A1.932,1.932,0,0,0,19.912,4.5Z" transform="translate(19.832 274.156)" fill="#009e77"/>
  </g>
</svg>
