<svg xmlns="http://www.w3.org/2000/svg" width="18.994" height="20.946" viewBox="0 0 18.994 20.946">
  <path id="Icon_simple-email" data-name="Icon simple-email" d="M20.651,9.667A10.8,10.8,0,0,1,20.3,12.01a6.78,6.78,0,0,1-.911,2.058,4.807,4.807,0,0,1-1.544,1.462,4.359,4.359,0,0,1-2.255.556,3.269,3.269,0,0,1-1.631-.4,2.793,2.793,0,0,1-1.1-1.13A3.493,3.493,0,0,1,9.9,16.041a3.005,3.005,0,0,1-2.58-1.387,4.542,4.542,0,0,1-.641-1.607,6.932,6.932,0,0,1-.084-2.1,9.74,9.74,0,0,1,.639-2.568A6.98,6.98,0,0,1,8.418,6.415a4.994,4.994,0,0,1,1.623-1.254,4.529,4.529,0,0,1,1.974-.438,6.137,6.137,0,0,1,1.181.1,4.832,4.832,0,0,1,.916.275,4.955,4.955,0,0,1,.759.4c.232.149.465.3.7.461l-.573,6.6a2.193,2.193,0,0,0,.017.772,1.08,1.08,0,0,0,.236.476.848.848,0,0,0,.382.249,1.419,1.419,0,0,0,1.343-.264,2.862,2.862,0,0,0,.72-.916,5.9,5.9,0,0,0,.484-1.377,9.447,9.447,0,0,0,.212-1.715,10.958,10.958,0,0,0-.27-3.2A6.369,6.369,0,0,0,16.932,4.1a5.506,5.506,0,0,0-2.126-1.6,7.715,7.715,0,0,0-3.1-.567A6.838,6.838,0,0,0,8.647,2.6,7.027,7.027,0,0,0,6.32,4.453,8.882,8.882,0,0,0,4.8,7.237a12.546,12.546,0,0,0-.641,3.468,11.534,11.534,0,0,0,.327,3.539,6.392,6.392,0,0,0,1.293,2.537A5.4,5.4,0,0,0,7.967,18.3a8.4,8.4,0,0,0,3.023.505,10.356,10.356,0,0,0,1.984-.213c.327-.065.637-.144.933-.23a7.024,7.024,0,0,0,.8-.288l.415,1.866a4.606,4.606,0,0,1-.9.445,8.656,8.656,0,0,1-1.063.308,10.37,10.37,0,0,1-2.22.249A11.641,11.641,0,0,1,6.9,20.294a7.449,7.449,0,0,1-2.95-1.94,8.146,8.146,0,0,1-1.771-3.2,13.662,13.662,0,0,1-.495-4.446,13.56,13.56,0,0,1,.851-4.267,10.56,10.56,0,0,1,2.05-3.39A9.34,9.34,0,0,1,7.709.811,9.79,9.79,0,0,1,11.758,0a10.221,10.221,0,0,1,3.924.7,7.632,7.632,0,0,1,2.832,1.976A8.111,8.111,0,0,1,20.2,5.733,11.676,11.676,0,0,1,20.651,9.667ZM9.41,10.95a4.453,4.453,0,0,0,.23,2.208,1.184,1.184,0,0,0,1.139.746,1.258,1.258,0,0,0,.39-.072,1.391,1.391,0,0,0,.449-.27,2.4,2.4,0,0,0,.455-.55,4.219,4.219,0,0,0,.419-.929l.448-5.126a2.674,2.674,0,0,0-.7-.092,2.408,2.408,0,0,0-1.158.266,2.293,2.293,0,0,0-.821.78A4.581,4.581,0,0,0,9.72,9.195a10.881,10.881,0,0,0-.309,1.754Z" transform="translate(-1.67)" fill="#f0860b"/>
</svg>
