<svg xmlns="http://www.w3.org/2000/svg" width="18.994" height="16.983" viewBox="0 0 18.994 16.983">
  <g id="Group_273" data-name="Group 273" transform="translate(-309 -133.619)">
    <path id="Path_141" data-name="Path 141" d="M2.837,1.179Q2.837-.59.308-.59V-2.406a3.371,3.371,0,0,0,1.907-.433,1.5,1.5,0,0,0,.623-1.317V-7.113A2.45,2.45,0,0,1,3.869-9.3a5.556,5.556,0,0,1,3.1-.7v1.731a2.707,2.707,0,0,0-1.574.442A1.419,1.419,0,0,0,4.9-6.647v2.824q0,1.892-2.178,2.263v.114Q4.9-1.1,4.9.808V3.652a1.439,1.439,0,0,0,.485,1.179,2.557,2.557,0,0,0,1.579.418v1.74A5.417,5.417,0,0,1,3.8,6.243a2.757,2.757,0,0,1-.965-2.354Z" transform="translate(308.692 143.613)" fill="#f00b40"/>
    <path id="Path_142" data-name="Path 142" d="M2.837,1.179Q2.837-.59.308-.59V-2.406a3.371,3.371,0,0,0,1.907-.433,1.5,1.5,0,0,0,.623-1.317V-7.113A2.45,2.45,0,0,1,3.869-9.3a5.556,5.556,0,0,1,3.1-.7v1.731a2.707,2.707,0,0,0-1.574.442A1.419,1.419,0,0,0,4.9-6.647v2.824q0,1.892-2.178,2.263v.114Q4.9-1.1,4.9.808V3.652a1.439,1.439,0,0,0,.485,1.179,2.557,2.557,0,0,0,1.579.418v1.74A5.417,5.417,0,0,1,3.8,6.243a2.757,2.757,0,0,1-.965-2.354Z" transform="translate(328.301 140.608) rotate(180)" fill="#f00b40"/>
  </g>
</svg>
