<svg xmlns="http://www.w3.org/2000/svg" width="122.014" height="17.04" viewBox="0 0 122.014 17.04">
  <path id="Path_2282" data-name="Path 2282" d="M7.379-11.041q3.97,0,3.97,4.764v6a1.04,1.04,0,0,1-.3.75,1.011,1.011,0,0,1-.761.309A.985.985,0,0,1,9.551.471a1.04,1.04,0,0,1-.3-.75V-6.256a3.308,3.308,0,0,0-.6-2.073A2.3,2.3,0,0,0,6.718-9.1a3.318,3.318,0,0,0-1.6.386A2.946,2.946,0,0,0,3.994-7.678a2.626,2.626,0,0,0-.408,1.422V-.279a1.04,1.04,0,0,1-.3.75,1.011,1.011,0,0,1-.761.309.994.994,0,0,1-.75-.3,1.052,1.052,0,0,1-.287-.761V-9.718a1.04,1.04,0,0,1,.3-.75.985.985,0,0,1,.739-.309,1.011,1.011,0,0,1,.761.309,1.04,1.04,0,0,1,.3.75v.772a4.739,4.739,0,0,1,1.6-1.489A4.239,4.239,0,0,1,7.379-11.041ZM25.419-5a6.17,6.17,0,0,1-.772,3.087A5.607,5.607,0,0,1,22.541.228,5.774,5.774,0,0,1,19.6,1,5.774,5.774,0,0,1,16.653.228a5.607,5.607,0,0,1-2.106-2.139A6.17,6.17,0,0,1,13.775-5a6.293,6.293,0,0,1,.772-3.11,5.565,5.565,0,0,1,2.106-2.161,5.774,5.774,0,0,1,2.944-.772,5.774,5.774,0,0,1,2.944.772,5.565,5.565,0,0,1,2.106,2.161A6.293,6.293,0,0,1,25.419-5Zm-2.1,0a4.478,4.478,0,0,0-.5-2.128,3.681,3.681,0,0,0-1.345-1.456A3.548,3.548,0,0,0,19.6-9.1a3.548,3.548,0,0,0-1.886.518,3.681,3.681,0,0,0-1.345,1.456A4.478,4.478,0,0,0,15.87-5a4.366,4.366,0,0,0,.5,2.1,3.7,3.7,0,0,0,1.345,1.444A3.548,3.548,0,0,0,19.6-.941a3.548,3.548,0,0,0,1.886-.518A3.7,3.7,0,0,0,22.828-2.9,4.366,4.366,0,0,0,23.324-5ZM37.217-15.54a1.03,1.03,0,0,1,.761.3,1.03,1.03,0,0,1,.3.761v14.2a1.04,1.04,0,0,1-.3.75,1.011,1.011,0,0,1-.761.309.994.994,0,0,1-.75-.3,1.052,1.052,0,0,1-.287-.761V-.9A4.461,4.461,0,0,1,34.626.449,4.4,4.4,0,0,1,32.476,1,4.947,4.947,0,0,1,29.763.228a5.4,5.4,0,0,1-1.919-2.15,6.7,6.7,0,0,1-.706-3.1,6.787,6.787,0,0,1,.695-3.1,5.325,5.325,0,0,1,1.908-2.15,4.871,4.871,0,0,1,2.668-.772,4.854,4.854,0,0,1,2.161.485A4.621,4.621,0,0,1,36.181-9.3v-5.183a1.052,1.052,0,0,1,.287-.761A.994.994,0,0,1,37.217-15.54Zm-4.5,14.6A3.276,3.276,0,0,0,34.56-1.47a3.577,3.577,0,0,0,1.257-1.456,4.715,4.715,0,0,0,.452-2.1A4.734,4.734,0,0,0,35.817-7.1,3.562,3.562,0,0,0,34.56-8.571,3.276,3.276,0,0,0,32.719-9.1a3.276,3.276,0,0,0-1.841.529A3.562,3.562,0,0,0,29.62-7.1a4.734,4.734,0,0,0-.452,2.084,4.715,4.715,0,0,0,.452,2.1A3.577,3.577,0,0,0,30.877-1.47,3.276,3.276,0,0,0,32.719-.941ZM51.53-5.44a.943.943,0,0,1-.331.673,1.057,1.057,0,0,1-.728.276H42.709a3.838,3.838,0,0,0,1.224,2.58,3.749,3.749,0,0,0,2.613.97,4.093,4.093,0,0,0,1.72-.309,4.319,4.319,0,0,0,1.169-.794,1.244,1.244,0,0,1,.64-.2.836.836,0,0,1,.629.265.864.864,0,0,1,.254.617,1.089,1.089,0,0,1-.441.838,5.192,5.192,0,0,1-1.7,1.081A5.571,5.571,0,0,1,46.656,1,6.389,6.389,0,0,1,43.514.25a5.225,5.225,0,0,1-2.1-2.1,6.217,6.217,0,0,1-.739-3.043,6.708,6.708,0,0,1,.761-3.253,5.513,5.513,0,0,1,2.007-2.15,5.107,5.107,0,0,1,2.679-.75,5.126,5.126,0,0,1,2.646.728,5.528,5.528,0,0,1,1.985,2.007A5.725,5.725,0,0,1,51.53-5.44ZM46.127-9.1a3.409,3.409,0,0,0-2.139.695A3.42,3.42,0,0,0,42.8-6.256H49.3v-.176a2.694,2.694,0,0,0-1.048-1.919A3.315,3.315,0,0,0,46.127-9.1Zm7.167,8.072a1.1,1.1,0,0,1-.2-.6.892.892,0,0,1,.463-.75.863.863,0,0,1,.507-.154,1.012,1.012,0,0,1,.728.331,4.659,4.659,0,0,0,1.422,1.125A4.078,4.078,0,0,0,58.036-.7a3.106,3.106,0,0,0,1.478-.386,1.254,1.254,0,0,0,.64-1.18A1.267,1.267,0,0,0,59.5-3.411a7.4,7.4,0,0,0-1.908-.728,14.053,14.053,0,0,1-2.051-.695,3.675,3.675,0,0,1-1.378-1.059A2.8,2.8,0,0,1,53.6-7.711a2.824,2.824,0,0,1,.562-1.742,3.738,3.738,0,0,1,1.5-1.169,4.941,4.941,0,0,1,2.04-.419,5.9,5.9,0,0,1,2.106.4A3.956,3.956,0,0,1,61.52-9.431a.975.975,0,0,1,.265.64.948.948,0,0,1-.353.684.793.793,0,0,1-.551.2.826.826,0,0,1-.64-.265,3.1,3.1,0,0,0-1.136-.816,3.759,3.759,0,0,0-1.489-.287,2.773,2.773,0,0,0-1.422.342,1.232,1.232,0,0,0-.584,1.158,1.282,1.282,0,0,0,.673,1.147,8.555,8.555,0,0,0,2,.728,12.3,12.3,0,0,1,1.941.662,3.387,3.387,0,0,1,1.3,1.048,2.922,2.922,0,0,1,.529,1.819,2.83,2.83,0,0,1-.6,1.8A3.839,3.839,0,0,1,59.9.592,5.158,5.158,0,0,1,57.859,1,6.69,6.69,0,0,1,55.29.515,4.792,4.792,0,0,1,53.294-1.029Zm14.313-7.7v6.572q0,1.1.992,1.1a1.6,1.6,0,0,0,.419-.077,1.6,1.6,0,0,1,.419-.077.605.605,0,0,1,.485.243.943.943,0,0,1,.2.617.943.943,0,0,1-.529.794A2.2,2.2,0,0,1,68.4.779,5.4,5.4,0,0,1,67.067.625a1.979,1.979,0,0,1-1.081-.783,3.156,3.156,0,0,1-.474-1.908v-6.66H64.233A.942.942,0,0,1,63.538-9a.942.942,0,0,1-.276-.695.906.906,0,0,1,.276-.684.963.963,0,0,1,.695-.265h1.279V-12.5a1.04,1.04,0,0,1,.3-.75,1.011,1.011,0,0,1,.761-.309.985.985,0,0,1,.739.309,1.04,1.04,0,0,1,.3.75v1.852h1.83a.942.942,0,0,1,.695.276.942.942,0,0,1,.276.695.905.905,0,0,1-.276.684.963.963,0,0,1-.695.265Zm14.621-2.205a1.03,1.03,0,0,1,.761.3,1.059,1.059,0,0,1,.3.783V-.279a1.04,1.04,0,0,1-.3.75,1.011,1.011,0,0,1-.761.309.994.994,0,0,1-.75-.3,1.052,1.052,0,0,1-.287-.761V-.852A4.72,4.72,0,0,1,79.626.46,4.4,4.4,0,0,1,77.487,1,5,5,0,0,1,74.763.228a5.3,5.3,0,0,1-1.919-2.15,6.787,6.787,0,0,1-.695-3.1,6.787,6.787,0,0,1,.695-3.1,5.325,5.325,0,0,1,1.908-2.15,4.871,4.871,0,0,1,2.668-.772,4.924,4.924,0,0,1,2.172.485,4.5,4.5,0,0,1,1.6,1.235V-9.85a1.091,1.091,0,0,1,.287-.772A.976.976,0,0,1,82.228-10.931Zm-4.5,9.99a3.276,3.276,0,0,0,1.841-.529,3.577,3.577,0,0,0,1.257-1.456,4.715,4.715,0,0,0,.452-2.1,4.663,4.663,0,0,0-.452-2.073A3.658,3.658,0,0,0,79.571-8.56a3.227,3.227,0,0,0-1.841-.54,3.276,3.276,0,0,0-1.841.529,3.577,3.577,0,0,0-1.257,1.456,4.715,4.715,0,0,0-.452,2.1,4.715,4.715,0,0,0,.452,2.1A3.577,3.577,0,0,0,75.888-1.47,3.276,3.276,0,0,0,77.729-.941Zm11.8-7.785v6.572q0,1.1.992,1.1a1.6,1.6,0,0,0,.419-.077,1.6,1.6,0,0,1,.419-.077.605.605,0,0,1,.485.243.943.943,0,0,1,.2.617.943.943,0,0,1-.529.794,2.2,2.2,0,0,1-1.191.331A5.4,5.4,0,0,1,88.988.625a1.979,1.979,0,0,1-1.081-.783,3.156,3.156,0,0,1-.474-1.908v-6.66H86.154A.942.942,0,0,1,85.459-9a.942.942,0,0,1-.276-.695.905.905,0,0,1,.276-.684.963.963,0,0,1,.695-.265h1.279V-12.5a1.04,1.04,0,0,1,.3-.75,1.011,1.011,0,0,1,.761-.309.985.985,0,0,1,.739.309,1.04,1.04,0,0,1,.3.75v1.852h1.83a.942.942,0,0,1,.695.276.942.942,0,0,1,.276.695.906.906,0,0,1-.276.684.963.963,0,0,1-.695.265ZM96.761-.279a1.04,1.04,0,0,1-.3.75A1.011,1.011,0,0,1,95.7.779a.985.985,0,0,1-.739-.309,1.04,1.04,0,0,1-.3-.75V-9.828a1.04,1.04,0,0,1,.3-.75.985.985,0,0,1,.739-.309,1.011,1.011,0,0,1,.761.309,1.04,1.04,0,0,1,.3.75ZM95.7-12.342a1.427,1.427,0,0,1-.915-.232.913.913,0,0,1-.276-.739v-.353a.873.873,0,0,1,.3-.75,1.54,1.54,0,0,1,.915-.221,1.384,1.384,0,0,1,.893.232.913.913,0,0,1,.276.739v.353a.889.889,0,0,1-.287.75A1.487,1.487,0,0,1,95.7-12.342ZM110.721-5a6.17,6.17,0,0,1-.772,3.087A5.607,5.607,0,0,1,107.843.228,5.774,5.774,0,0,1,104.9,1a5.774,5.774,0,0,1-2.944-.772,5.607,5.607,0,0,1-2.106-2.139A6.17,6.17,0,0,1,99.077-5a6.293,6.293,0,0,1,.772-3.11,5.565,5.565,0,0,1,2.106-2.161,5.774,5.774,0,0,1,2.944-.772,5.774,5.774,0,0,1,2.944.772,5.565,5.565,0,0,1,2.106,2.161A6.293,6.293,0,0,1,110.721-5Zm-2.1,0a4.478,4.478,0,0,0-.5-2.128,3.68,3.68,0,0,0-1.345-1.456A3.548,3.548,0,0,0,104.9-9.1a3.548,3.548,0,0,0-1.886.518,3.681,3.681,0,0,0-1.345,1.456,4.478,4.478,0,0,0-.5,2.128,4.366,4.366,0,0,0,.5,2.1,3.7,3.7,0,0,0,1.345,1.444,3.548,3.548,0,0,0,1.886.518,3.548,3.548,0,0,0,1.886-.518A3.7,3.7,0,0,0,108.13-2.9,4.366,4.366,0,0,0,108.626-5Zm10.409-6.043q3.97,0,3.97,4.764v6a1.04,1.04,0,0,1-.3.75,1.011,1.011,0,0,1-.761.309.985.985,0,0,1-.739-.309,1.04,1.04,0,0,1-.3-.75V-6.256a3.308,3.308,0,0,0-.6-2.073,2.3,2.3,0,0,0-1.941-.772,3.318,3.318,0,0,0-1.6.386,2.946,2.946,0,0,0-1.125,1.037,2.626,2.626,0,0,0-.408,1.422V-.279a1.04,1.04,0,0,1-.3.75,1.011,1.011,0,0,1-.761.309.994.994,0,0,1-.75-.3,1.052,1.052,0,0,1-.287-.761V-9.718a1.04,1.04,0,0,1,.3-.75.985.985,0,0,1,.739-.309,1.011,1.011,0,0,1,.761.309,1.04,1.04,0,0,1,.3.75v.772a4.739,4.739,0,0,1,1.6-1.489A4.239,4.239,0,0,1,119.035-11.041Z" transform="translate(-1.241 15.79)" fill="#fff" stroke="#fff" stroke-width="0.5"/>
</svg>
