<svg xmlns="http://www.w3.org/2000/svg" xmlns:xlink="http://www.w3.org/1999/xlink" width="73.252" height="73.256" viewBox="0 0 73.252 73.256">
  <defs>
    <linearGradient id="linear-gradient" x1="0.5" x2="0.5" y2="1" gradientUnits="objectBoundingBox">
      <stop offset="0" stop-color="#8a70f3"/>
      <stop offset="1" stop-color="#5ef1dc"/>
    </linearGradient>
  </defs>
  <g id="Group_5957" data-name="Group 5957" transform="translate(-1238 1114)">
    <g id="Group_5956" data-name="Group 5956">
      <path id="Path_54_19_" d="M-1617.186-1039.9h38.372a17.821,17.821,0,0,1,17.436,18.172V-984.8a17.8,17.8,0,0,1-17.436,18.156h-38.372a17.8,17.8,0,0,1-17.436-18.156v-36.933a17.79,17.79,0,0,1,4.951-12.7A17.79,17.79,0,0,1-1617.186-1039.9Z" transform="translate(2872.626 -74.1)" opacity="0.999" fill="url(#linear-gradient)"/>
      <path id="Path_55_15_" d="M-1600.572-1020.8h37.08a15.3,15.3,0,0,1,14.95,15.653v35.69a15.32,15.32,0,0,1-14.95,15.653h-37.08a15.3,15.3,0,0,1-14.95-15.653v-35.69a15.3,15.3,0,0,1,14.95-15.653Z" transform="translate(2856.65 -90.076)" fill="#141315"/>
    </g>
    <g id="Group_5955" data-name="Group 5955">
      <path id="Path_194" data-name="Path 194" d="M613.316,458.359a6.986,6.986,0,0,1,3.713-2.4,8.822,8.822,0,0,1,5.659.164c4.842,1.816,4.809,7.033,4.809,7.033v5.921a6.206,6.206,0,0,0,6.2,6.2h.425a5.661,5.661,0,0,0,5.659-5.659h0V451.8h0a3.749,3.749,0,0,0-3.746,3.762l.1,13.363a2.454,2.454,0,0,1-2.453,2.47h-.049a2.684,2.684,0,0,1-2.682-2.682V462.22a8.666,8.666,0,0,0-.72-3.206,11.748,11.748,0,0,0-5.5-6.019c-5.79-2.961-11.433.523-11.433.523v4.841Z" transform="translate(648.077 -1543.604)" fill="#fff"/>
      <path id="Path_195" data-name="Path 195" d="M639.865,501.612a6.987,6.987,0,0,1-3.713,2.4,8.822,8.822,0,0,1-5.659-.164c-4.841-1.816-4.809-7.033-4.809-7.033V490.9a6.206,6.206,0,0,0-6.2-6.2h-.425a5.661,5.661,0,0,0-5.659,5.659h0v17.8h0a3.749,3.749,0,0,0,3.746-3.762l-.1-13.363a2.454,2.454,0,0,1,2.453-2.47h.049a2.684,2.684,0,0,1,2.682,2.682v6.493a8.666,8.666,0,0,0,.72,3.206,11.748,11.748,0,0,0,5.5,6.019c5.79,2.961,11.433-.523,11.433-.523v-4.825Z" transform="translate(647.993 -1571.123)" fill="#fff"/>
    </g>
  </g>
</svg>
