<svg xmlns="http://www.w3.org/2000/svg" xmlns:xlink="http://www.w3.org/1999/xlink" width="73.252" height="73.26" viewBox="0 0 73.252 73.26">
  <defs>
    <linearGradient id="linear-gradient" x1="0.5" x2="0.5" y2="1" gradientUnits="objectBoundingBox">
      <stop offset="0" stop-color="#8a70f3"/>
      <stop offset="1" stop-color="#5ef1dc"/>
    </linearGradient>
  </defs>
  <g id="Layer_2" transform="translate(-470.374 -316.1)">
    <g id="Group_43" data-name="Group 43" transform="translate(470.374 316.1)">
      <g id="Group_42" data-name="Group 42">
        <g id="Group_9_15_">
          <path id="Path_54_19_" d="M-1617.186-1039.9h38.372a17.821,17.821,0,0,1,17.436,18.172V-984.8a17.8,17.8,0,0,1-17.436,18.156h-38.372a17.8,17.8,0,0,1-17.436-18.156v-36.933A17.79,17.79,0,0,1-1617.186-1039.9Z" transform="translate(1634.626 1039.9)" opacity="0.999" fill="url(#linear-gradient)"/>
          <path id="Path_55_15_" d="M-1600.572-1020.8h37.08a15.3,15.3,0,0,1,14.95,15.653v35.69a15.32,15.32,0,0,1-14.95,15.653h-37.08a15.3,15.3,0,0,1-14.95-15.653v-35.69A15.3,15.3,0,0,1-1600.572-1020.8Z" transform="translate(1618.65 1023.924)" fill="#141315"/>
        </g>
        <g id="Group_41" data-name="Group 41" transform="translate(23.377 22.196)">
          <path id="Path_194" data-name="Path 194" d="M613.316,458.359a6.986,6.986,0,0,1,3.713-2.4,8.822,8.822,0,0,1,5.659.164c4.842,1.816,4.809,7.033,4.809,7.033v5.921a6.206,6.206,0,0,0,6.2,6.2h.425a5.661,5.661,0,0,0,5.659-5.659h0V451.8h0a3.749,3.749,0,0,0-3.746,3.762l.1,13.363a2.454,2.454,0,0,1-2.453,2.47h-.049a2.684,2.684,0,0,1-2.682-2.682v-6.493a8.667,8.667,0,0,0-.72-3.206,11.748,11.748,0,0,0-5.5-6.019c-5.79-2.961-11.433.523-11.433.523v4.841Z" transform="translate(-613.3 -451.8)" fill="#fff"/>
          <path id="Path_195" data-name="Path 195" d="M639.865,501.612a6.987,6.987,0,0,1-3.713,2.4,8.822,8.822,0,0,1-5.659-.164c-4.841-1.816-4.809-7.033-4.809-7.033V490.9a6.206,6.206,0,0,0-6.2-6.2h-.425a5.661,5.661,0,0,0-5.659,5.659h0v17.8h0a3.749,3.749,0,0,0,3.746-3.762l-.1-13.363a2.454,2.454,0,0,1,2.453-2.47h.049a2.684,2.684,0,0,1,2.682,2.682v6.493a8.667,8.667,0,0,0,.72,3.206,11.748,11.748,0,0,0,5.5,6.019c5.79,2.961,11.433-.523,11.433-.523v-4.825Z" transform="translate(-613.384 -479.319)" fill="#fff"/>
        </g>
      </g>
    </g>
  </g>
</svg>
