<svg xmlns="http://www.w3.org/2000/svg" width="12.94" height="16.983" viewBox="0 0 12.94 16.983">
  <path id="Icon_material-lock-outline" data-name="Icon material-lock-outline" d="M12.47,14.44a1.617,1.617,0,1,0-1.617-1.617A1.622,1.622,0,0,0,12.47,14.44Zm4.852-7.279h-.809V5.544a4.044,4.044,0,1,0-8.087,0V7.161H7.617A1.622,1.622,0,0,0,6,8.779v8.087a1.622,1.622,0,0,0,1.617,1.617h9.7a1.622,1.622,0,0,0,1.617-1.617V8.779A1.622,1.622,0,0,0,17.322,7.161ZM9.963,5.544a2.507,2.507,0,1,1,5.014,0V7.161H9.963Zm7.359,11.322h-9.7V8.779h9.7Z" transform="translate(-6 -1.5)" fill="#f0ce10"/>
</svg>
