<svg xmlns="http://www.w3.org/2000/svg" width="19" height="19" viewBox="0 0 19 19">
  <path id="Icon_awesome-hashtag" data-name="Icon awesome-hashtag" d="M18.689,8.616l.3-1.7a.509.509,0,0,0-.5-.6H15.318l.62-3.473a.509.509,0,0,0-.5-.6H13.714a.509.509,0,0,0-.5.419l-.652,3.652H8.378L9,2.848a.509.509,0,0,0-.5-.6H6.774a.509.509,0,0,0-.5.419L5.621,6.321H2.266a.509.509,0,0,0-.5.419l-.3,1.7a.509.509,0,0,0,.5.6H5.136l-.969,5.429H.812a.509.509,0,0,0-.5.419l-.3,1.7a.509.509,0,0,0,.5.6H3.682l-.62,3.473a.509.509,0,0,0,.5.6H5.286a.509.509,0,0,0,.5-.419l.652-3.652h4.183L10,20.652a.509.509,0,0,0,.5.6h1.723a.509.509,0,0,0,.5-.419l.652-3.652h3.355a.509.509,0,0,0,.5-.419l.3-1.7a.509.509,0,0,0-.5-.6H13.864l.969-5.429h3.355a.509.509,0,0,0,.5-.419Zm-7.582,5.848H6.924l.969-5.429h4.183Z" transform="translate(0 -2.25)" fill="#f007d5"/>
</svg>
