<svg xmlns="http://www.w3.org/2000/svg" width="36.785" height="22.001" viewBox="0 0 36.785 22.001">
  <g id="Amazon_Web_Services_Logo" transform="translate(-1.671 -1.1)">
    <path id="Path_21" data-name="Path 21" d="M22.946,9.09a3.7,3.7,0,0,0,.135,1.089,6.549,6.549,0,0,0,.392.881.532.532,0,0,1,.086.281.484.484,0,0,1-.232.367l-.771.514a.587.587,0,0,1-.318.11.563.563,0,0,1-.367-.171,3.785,3.785,0,0,1-.44-.575c-.122-.208-.245-.44-.379-.722a4.52,4.52,0,0,1-3.6,1.689A3.353,3.353,0,0,1,15,11.672a3.143,3.143,0,0,1-.9-2.35A3.15,3.15,0,0,1,15.213,6.8a4.451,4.451,0,0,1,3-.954,9.688,9.688,0,0,1,1.3.1c.453.061.918.159,1.407.269V5.321a2.711,2.711,0,0,0-.575-1.958,2.816,2.816,0,0,0-2-.563,5.567,5.567,0,0,0-1.321.159,9.75,9.75,0,0,0-1.321.416,3.511,3.511,0,0,1-.428.159.751.751,0,0,1-.2.037c-.171,0-.257-.122-.257-.379v-.6a.774.774,0,0,1,.086-.428.916.916,0,0,1,.343-.257,7.044,7.044,0,0,1,1.542-.551,7.418,7.418,0,0,1,1.91-.232,4.471,4.471,0,0,1,3.206.991,4.049,4.049,0,0,1,1.016,3.01V9.09Zm-4.968,1.86a3.965,3.965,0,0,0,1.26-.22A2.727,2.727,0,0,0,20.4,9.946a1.942,1.942,0,0,0,.416-.783A4.393,4.393,0,0,0,20.94,8.1V7.585a10.219,10.219,0,0,0-1.126-.208,9.22,9.22,0,0,0-1.15-.073,2.821,2.821,0,0,0-1.823.489,1.705,1.705,0,0,0-.6,1.407,1.579,1.579,0,0,0,1.737,1.75ZM27.8,12.271a.683.683,0,0,1-.465-.122,1,1,0,0,1-.257-.477L24.207,2.213a2.143,2.143,0,0,1-.11-.489.268.268,0,0,1,.294-.306h1.2a.678.678,0,0,1,.477.122,1,1,0,0,1,.245.477l2.056,8.1,1.909-8.1a.858.858,0,0,1,.232-.477A.842.842,0,0,1,31,1.418h.979a.736.736,0,0,1,.489.122.825.825,0,0,1,.232.477l1.933,8.2,2.117-8.2a1.049,1.049,0,0,1,.245-.477.8.8,0,0,1,.477-.122H38.61a.272.272,0,0,1,.306.306,1.22,1.22,0,0,1-.024.2,1.742,1.742,0,0,1-.086.306l-2.949,9.458a.938.938,0,0,1-.257.477.783.783,0,0,1-.465.122H34.081a.736.736,0,0,1-.489-.122.867.867,0,0,1-.232-.489l-1.9-7.892-1.884,7.88a.955.955,0,0,1-.232.489.758.758,0,0,1-.489.122Zm15.723.33a8.1,8.1,0,0,1-1.884-.22,5.566,5.566,0,0,1-1.407-.489.882.882,0,0,1-.379-.343.864.864,0,0,1-.073-.343v-.624c0-.257.1-.379.281-.379a.693.693,0,0,1,.22.037c.073.024.184.073.306.122a6.656,6.656,0,0,0,1.346.428,7.348,7.348,0,0,0,1.456.147,3.3,3.3,0,0,0,1.786-.4,1.318,1.318,0,0,0,.636-1.162,1.192,1.192,0,0,0-.33-.857,3.07,3.07,0,0,0-1.236-.636l-1.774-.551A3.732,3.732,0,0,1,40.517,6.08a2.915,2.915,0,0,1-.612-1.774,2.723,2.723,0,0,1,.33-1.358,3.146,3.146,0,0,1,.881-1,3.883,3.883,0,0,1,1.273-.636A5.333,5.333,0,0,1,43.931,1.1a6.142,6.142,0,0,1,.82.049c.281.037.538.086.8.135a4.58,4.58,0,0,1,.7.2,2.67,2.67,0,0,1,.514.22,1.058,1.058,0,0,1,.367.306.659.659,0,0,1,.11.4v.575c0,.257-.1.392-.281.392A1.273,1.273,0,0,1,46.5,3.23a5.6,5.6,0,0,0-2.349-.477A3.158,3.158,0,0,0,42.52,3.1a1.182,1.182,0,0,0-.575,1.089,1.155,1.155,0,0,0,.367.869,3.655,3.655,0,0,0,1.346.673l1.737.551a3.721,3.721,0,0,1,1.9,1.175,2.769,2.769,0,0,1,.563,1.713,3.146,3.146,0,0,1-.318,1.419,3.291,3.291,0,0,1-.893,1.077,3.944,3.944,0,0,1-1.358.685,5.818,5.818,0,0,1-1.762.253Z" transform="translate(-10.911)" fill="#333d47"/>
    <g id="Group_6" data-name="Group 6" transform="translate(1.668 14.815)">
      <path id="Path_22" data-name="Path 22" d="M34.929,122.148a26.392,26.392,0,0,1-14.9,4.552,26.962,26.962,0,0,1-18.195-6.938c-.379-.343-.037-.808.416-.538a36.136,36.136,0,0,0,32.095,1.994C35.015,120.912,35.59,121.658,34.929,122.148Z" transform="translate(-1.668 -118.415)" fill="#f90" fill-rule="evenodd"/>
      <path id="Path_23" data-name="Path 23" d="M251.029,115.016c-.514-.661-3.4-.318-4.711-.159-.392.049-.453-.294-.1-.551,2.3-1.615,6.081-1.15,6.522-.612s-.122,4.331-2.276,6.142c-.33.281-.648.135-.5-.232C250.454,118.393,251.543,115.665,251.029,115.016Z" transform="translate(-216.092 -113.192)" fill="#f90" fill-rule="evenodd"/>
    </g>
  </g>
</svg>
