<svg xmlns="http://www.w3.org/2000/svg" width="87.442" height="28.527" viewBox="0 0 87.442 28.527">
  <g id="wasabi-ar21" transform="translate(-10.448 -13.835)">
    <path id="Path_51" data-name="Path 51" d="M34.774,17.99A14.264,14.264,0,1,0,38.49,31.78a14.261,14.261,0,0,0-3.716-13.79Zm1.541,8.79-6.141-5.574-6.28,5.935-3.3,3.1V25.618l5-4.753,3.736-3.529a11.731,11.731,0,0,1,6.986,9.444Zm-.109,3.363a11.6,11.6,0,0,1-1.228,3.5l-3.5-3.191V25.83ZM26.477,16.51l-2.643,2.5-3.252,3.085V17.12a11.717,11.717,0,0,1,5.9-.61ZM18.025,30.329l-4.848-4.352a11.635,11.635,0,0,1,1.274-3.559l3.573,3.208Zm0-11.862v3.706l-2.082-1.867a11.735,11.735,0,0,1,2.081-1.848ZM13.053,29.3l6.282,5.635,9.576-9.013V30.47l-8.83,8.356A11.726,11.726,0,0,1,13.052,29.3Zm9.882,10.344,5.98-5.653v4.994a11.651,11.651,0,0,1-4.222.789,11.975,11.975,0,0,1-1.759-.131Zm8.541-2.038v-3.7l2.038,1.846a11.483,11.483,0,0,1-2.033,1.85Z" transform="translate(0 0)" fill="#00ce3e"/>
    <g id="Group_7" data-name="Group 7" transform="translate(45.092 21.703)">
      <path id="Path_52" data-name="Path 52" d="M73.689,27.756a1.006,1.006,0,0,0-1.923-.406,4.412,4.412,0,1,0,0,7.626,1.006,1.006,0,0,0,1.923-.406ZM69.56,33.562a2.4,2.4,0,1,1,2.119-3.513v2.223a2.4,2.4,0,0,1-2.119,1.288Zm33.364,2.008a1.006,1.006,0,0,1-1-1v-6.81a1,1,0,1,1,2.009,0v6.81a1.006,1.006,0,0,1-1,1Zm-12.3-7.814A1.006,1.006,0,0,0,88.7,27.35a4.412,4.412,0,1,0,0,7.626,1.006,1.006,0,0,0,1.923-.406Zm-4.135,5.806a2.4,2.4,0,1,1,2.126-3.512v2.223a2.4,2.4,0,0,1-2.126,1.288Zm9.778-6.812a4.334,4.334,0,0,0-2.118.547V24.03a1,1,0,0,0-2.01,0V34.563a1.006,1.006,0,0,0,1.923.406,4.413,4.413,0,1,0,2.22-8.229Zm0,6.81a2.4,2.4,0,0,1-2.126-1.288V30.049a2.4,2.4,0,1,1,2.126,3.513Z" transform="translate(-51.527 -22.784)" fill="#fff"/>
      <circle id="Ellipse_4" data-name="Ellipse 4" cx="1.399" cy="1.399" r="1.399" transform="translate(50)" fill="#fff"/>
      <path id="Path_53" data-name="Path 53" d="M62.469,27.146a1.085,1.085,0,0,0-1.338.456,1.023,1.023,0,0,0-.108.263,3.125,3.125,0,0,1-.166.529l-1.719,4.059-1.781-4.182a1.02,1.02,0,0,0-.92-.618,1.006,1.006,0,0,0-.92.606L53.7,32.468,52,28.42a2.761,2.761,0,0,1-.169-.506,1.059,1.059,0,0,0-.847-.806,1.071,1.071,0,0,0-1.106,1.617,3.335,3.335,0,0,1,.284.526l2.594,6.18a1.006,1.006,0,0,0,.92.62h.014a1.006,1.006,0,0,0,.92-.606L56.441,31.2l1.8,4.235a1,1,0,0,0,1.841-.009l2.607-6.171a4.023,4.023,0,0,1,.3-.555.929.929,0,0,0,.073-.141,1.071,1.071,0,0,0-.579-1.406ZM76.5,30.634c-.225-.018-1.346-.132-1.346-.634,0-.69.75-.765,1.072-.765a1.579,1.579,0,0,1,1.036.309,1.006,1.006,0,0,0,1.553-1.271,3.293,3.293,0,0,0-2.591-1.043A2.812,2.812,0,0,0,73.14,30c0,.559.229,2.4,3.2,2.629.409.033,1.094.169,1.094.722,0,.671-1.161.677-1.211.677a2.7,2.7,0,0,1-1.544-.421,1,1,0,1,0-1.29,1.534,4.543,4.543,0,0,0,2.838.882,3.915,3.915,0,0,0,1.941-.494,2.462,2.462,0,0,0,1.274-2.184c0-1.513-1.159-2.583-2.95-2.725Z" transform="translate(-49.712 -23.26)" fill="#fff"/>
    </g>
  </g>
</svg>
