<svg xmlns="http://www.w3.org/2000/svg" width="21.925" height="15.238" viewBox="0 0 21.925 15.238">
  <g id="Group_55" data-name="Group 55" transform="translate(-2 -5.1)">
    <path id="Path_196" data-name="Path 196" d="M18.443,7.292H3.1A1.1,1.1,0,1,1,3.1,5.1H18.443a1.1,1.1,0,0,1,0,2.192Z" transform="translate(0 0)" fill="#b4e33d"/>
    <path id="Path_197" data-name="Path 197" d="M22.828,13.292H3.1a1.1,1.1,0,1,1,0-2.192H22.828a1.1,1.1,0,1,1,0,2.192Z" transform="translate(0 0.577)" fill="#b4e33d"/>
    <path id="Path_198" data-name="Path 198" d="M16.361,19.192H3.1A1.1,1.1,0,1,1,3.1,17H16.361a1.1,1.1,0,1,1,0,2.192Z" transform="translate(0 1.145)" fill="#b4e33d"/>
  </g>
</svg>
