<svg xmlns="http://www.w3.org/2000/svg" width="21.004" height="21.004" viewBox="0 0 21.004 21.004">
  <g id="lucide--circle-dot-dashed" transform="translate(-0.994 -0.994)">
    <path id="Path_8617" data-name="Path 8617" d="M9.692,2.171a9.4,9.4,0,0,1,3.609,0m3.514,1.453a9.5,9.5,0,0,1,2.554,2.564m1.453,3.5a9.4,9.4,0,0,1,0,3.609m-1.453,3.514A9.5,9.5,0,0,1,16.8,19.368m-3.5,1.453a9.4,9.4,0,0,1-3.609,0M6.178,19.368A9.5,9.5,0,0,1,3.624,16.8M2.171,13.3a9.4,9.4,0,0,1,0-3.609M3.624,6.178A9.5,9.5,0,0,1,6.188,3.624" fill="none" stroke="#ccda64" stroke-linecap="round" stroke-linejoin="round" stroke-width="2"/>
    <circle id="Ellipse_5842" data-name="Ellipse 5842" cx="0.95" cy="0.95" r="0.95" transform="translate(10.546 10.546)" fill="none" stroke="#ccda64" stroke-linecap="round" stroke-linejoin="round" stroke-width="2"/>
  </g>
</svg>
