<svg id="mailgun" xmlns="http://www.w3.org/2000/svg" width="101.984" height="28.321" viewBox="0 0 101.984 28.321">
  <path id="Path_19" data-name="Path 19" d="M11.185,20.432a4.266,4.266,0,0,0-4.258,4.259,4.22,4.22,0,0,0,4.258,4.258,4.258,4.258,0,0,0,0-8.516ZM4.546,24.618a6.566,6.566,0,1,1,13.133,0,2.469,2.469,0,0,1-.072.722,1.041,1.041,0,0,0,1.083,1.154c1.083,0,1.226-1.37,1.226-1.876a8.8,8.8,0,1,0-8.8,8.8,8.56,8.56,0,0,0,6.494-2.887l1.8,1.516a10.811,10.811,0,0,1-8.226,3.754A11.187,11.187,0,1,1,22.3,24.619c0,2.454-1.155,4.475-3.535,4.475a2.4,2.4,0,0,1-2.021-1.011,6.588,6.588,0,0,1-12.2-3.464Zm6.638-1.949a1.952,1.952,0,1,1-1.948,1.949,1.941,1.941,0,0,1,1.948-1.949Z" transform="translate(0 -10.755)" fill="#c02428"/>
  <path id="Path_20" data-name="Path 20" d="M172.435,9.464a4.909,4.909,0,0,1,3.577,1.486l.16.176V9.753H178.9v11.7l0,.569a6.355,6.355,0,0,1-1,3.984,5.606,5.606,0,0,1-4.815,2.312,5.365,5.365,0,0,1-5.746-5.618l0-.234h2.659l.031.4a3.406,3.406,0,0,0,.4,1.55,3.079,3.079,0,0,0,2.66,1.373c1.949,0,2.954-1.153,3.015-3.524l0-.233V20.374a4.608,4.608,0,0,1-3.737,1.734c-3.162,0-5.534-2.6-5.534-6.214,0-3.757,2.372-6.43,5.606-6.43Zm10.851.289v6.863c0,2.023.719,2.962,2.3,2.962s2.32-.875,2.369-2.757l0-.205V9.753h2.731v6.936c0,1.878-.288,2.889-1.222,3.9a5.236,5.236,0,0,1-3.881,1.517,5.073,5.073,0,0,1-3.809-1.517,5.121,5.121,0,0,1-1.219-3.626l0-.275V9.753Zm-34.638-.361a4.666,4.666,0,0,1,3.545,1.546l.191.188V9.753h2.731v11.92h-2.731V20.447a4.952,4.952,0,0,1-3.665,1.588c-3.306,0-5.678-2.673-5.678-6.43,0-3.54,2.372-6.213,5.607-6.213Zm-10.565,0c2.589,0,3.952,1.575,4.022,4.659l0,.253V21.89h-2.731V15.244c0-2.312-.5-3.179-1.8-3.179-1.529,0-2.185,1.015-2.225,3.372l0,.24v6.141h-2.731V15.172c0-2.167-.575-3.179-1.8-3.179-1.529,0-2.185,1.015-2.225,3.372l0,.24v6.141h-2.731V9.753H128.6v1.084a3.21,3.21,0,0,1,2.8-1.445,3.6,3.6,0,0,1,3.162,1.734,4.417,4.417,0,0,1,3.522-1.734Zm21.991.361V21.747h-2.731V9.753Zm38.376-.361c2.873,0,4.243,1.579,4.309,4.738l0,.246v7.37h-2.731V15.027c0-2.312-.5-3.107-2.227-3.107-1.815,0-2.477,1.022-2.513,3.8l0,6.03h-2.731V9.753h2.66v1.084a4.073,4.073,0,0,1,3.234-1.445ZM165.32,0V21.674h-2.731V0ZM149.151,11.848c-1.868,0-3.306,1.662-3.306,3.83,0,2.312,1.366,3.9,3.306,3.9,2.013,0,3.377-1.589,3.377-3.9,0-2.172-1.283-3.733-3.2-3.826l-.181,0Zm23.788,0c-2.013,0-3.306,1.59-3.306,3.9s1.294,3.829,3.306,3.829c1.94,0,3.306-1.589,3.306-3.9,0-2.172-1.217-3.733-3.125-3.826Zm-14.23-8.814a1.784,1.784,0,1,1-.159.006l.16-.006Z" transform="translate(-100.779)" fill="#fff"/>
</svg>
