<svg id="navbar-logo" xmlns="http://www.w3.org/2000/svg" width="113.969" height="14.423" viewBox="0 0 113.969 14.423">
  <path id="Path_24" data-name="Path 24" d="M0,2.228a.781.781,0,0,1,.781-.781H7.063a.618.618,0,0,1,.618.618V2.44a.618.618,0,0,1-.618.618H1.835V7.2H5.976a.619.619,0,0,1,.618.618v.374a.618.618,0,0,1-.618.618H1.835v4.253H7.381A.618.618,0,0,1,8,13.68v.375a.619.619,0,0,1-.619.618H.784A.781.781,0,0,1,0,13.892Z" transform="translate(0 -0.531)" fill="#fff"/>
  <path id="Path_25" data-name="Path 25" d="M17.525,13.577a.546.546,0,0,1-.619.618h-.581a.546.546,0,0,1-.619-.618V.623a.546.546,0,0,1,.619-.618h.581a.546.546,0,0,1,.619.618Z" transform="translate(-5.76 0)" fill="#fff"/>
  <path id="Path_26" data-name="Path 26" d="M30.118,7.233h-.45q-.618,0-.618.525v.471a2.1,2.1,0,0,0,.037.372H29.05a2.279,2.279,0,0,0-.6-.787,3.51,3.51,0,0,0-.909-.553,3.609,3.609,0,0,0-1.452-.253c-2.528,0-4.235,1.8-4.235,5.046,0,2.986,1.682,4.939,4.076,4.939a3.3,3.3,0,0,0,3.118-1.611h.037a3.476,3.476,0,0,0-.037.384v.477q0,.524.618.525h.45a.546.546,0,0,0,.618-.618V7.855a.546.546,0,0,0-.618-.622Zm-3.8,8.184c-1.595,0-2.605-1.5-2.605-3.437,0-1.818.73-3.4,2.688-3.4,1.5,0,2.558,1.33,2.558,3.4,0,2.051-1.067,3.436-2.637,3.436Z" transform="translate(-8.018 -2.57)" fill="#fff"/>
  <path id="Path_27" data-name="Path 27" d="M39.31,15.909a.485.485,0,0,1-.262-.375.765.765,0,0,1,.131-.469l.19-.262a.581.581,0,0,1,.384-.262.879.879,0,0,1,.478.131,8.746,8.746,0,0,0,.9.487,3.252,3.252,0,0,0,1.424.28,1.921,1.921,0,0,0,1.162-.328,1.076,1.076,0,0,0,.45-.928.9.9,0,0,0-.365-.749,4.244,4.244,0,0,0-.909-.515q-.544-.234-1.171-.45a5.442,5.442,0,0,1-1.171-.562,3.284,3.284,0,0,1-.909-.852,2.188,2.188,0,0,1-.365-1.311,2.513,2.513,0,0,1,.272-1.19,2.432,2.432,0,0,1,.74-.852,3.488,3.488,0,0,1,1.1-.515A4.827,4.827,0,0,1,42.7,7.009a4.4,4.4,0,0,1,1.639.262,7.137,7.137,0,0,1,.983.469.524.524,0,0,1,.309.346.674.674,0,0,1-.1.477l-.168.281a.557.557,0,0,1-.823.206,6.406,6.406,0,0,0-.778-.356,3.165,3.165,0,0,0-1.152-.19,2.031,2.031,0,0,0-1.133.3,1,1,0,0,0-.459.9.924.924,0,0,0,.365.76,3.766,3.766,0,0,0,.909.515q.543.225,1.171.45a6.537,6.537,0,0,1,1.171.553,3.007,3.007,0,0,1,.909.843,2.231,2.231,0,0,1,.365,1.321,2.551,2.551,0,0,1-.94,2,3.242,3.242,0,0,1-1.076.581,4.462,4.462,0,0,1-1.393.206,5.407,5.407,0,0,1-1.1-.1,5.158,5.158,0,0,1-.89-.262,5.6,5.6,0,0,1-.7-.337A3.994,3.994,0,0,1,39.31,15.909Z" transform="translate(-14.324 -2.57)" fill="#fff"/>
  <path id="Path_28" data-name="Path 28" d="M63.851,3.3a.546.546,0,0,1-.618-.618V2.063a.546.546,0,0,1,.618-.618h.637a.546.546,0,0,1,.619.618v.618a.546.546,0,0,1-.619.618Zm-.6,2.51a.546.546,0,0,1,.619-.618h.581a.546.546,0,0,1,.618.618V14.1a.546.546,0,0,1-.618.618H63.87a.546.546,0,0,1-.619-.618Z" transform="translate(-23.194 -0.528)" fill="#fff"/>
  <path id="Path_29" data-name="Path 29" d="M76.609,15.733a.507.507,0,0,1-.215.665,4.842,4.842,0,0,1-2.3.543c-3.374,0-4.8-2.533-4.8-4.965a4.774,4.774,0,0,1,6.9-4.461.507.507,0,0,1,.218.674l-.23.462a.5.5,0,0,1-.645.239,3.465,3.465,0,0,0-1.356-.3c-1.967,0-3.039,1.064-3.039,3.372,0,1.972,1.034,3.41,3.075,3.41a3.752,3.752,0,0,0,1.512-.331.5.5,0,0,1,.647.244Z" transform="translate(-25.423 -2.572)" fill="#fff"/>
  <path id="Path_30" data-name="Path 30" d="M55.166,14.77a.619.619,0,0,1-.619.618h-.581a.618.618,0,0,1-.619-.618V7.43h-.981a.538.538,0,0,1-.6-.618V6.471a.52.52,0,0,1,.52-.52h1.1V3.871A.619.619,0,0,1,54,3.252h.543a.619.619,0,0,1,.619.619V5.95h1.746a.52.52,0,0,1,.52.52v.341a.538.538,0,0,1-.6.618H55.166Z" transform="translate(-18.988 -1.193)" fill="#fff"/>
  <path id="Path_31" data-name="Path 31" d="M110.458,2.228a.781.781,0,0,1,.781-.781h6.282a.618.618,0,0,1,.618.618V2.44a.618.618,0,0,1-.618.618h-5.227V7.2h4.14a.618.618,0,0,1,.619.618v.374a.618.618,0,0,1-.619.618h-4.14v4.253h5.545a.618.618,0,0,1,.618.618v.375a.618.618,0,0,1-.618.618h-6.6a.781.781,0,0,1-.781-.781Z" transform="translate(-40.52 -0.531)" fill="#fff"/>
  <path id="Path_32" data-name="Path 32" d="M126.106,7.846a.546.546,0,0,1,.618-.618h.524a.547.547,0,0,1,.619.618v.843a1.911,1.911,0,0,1-.037.375.691.691,0,0,0-.019.169h.037a3.221,3.221,0,0,1,.5-.815,3.773,3.773,0,0,1,.768-.712,4.337,4.337,0,0,1,.955-.507,3,3,0,0,1,1.076-.2,2.609,2.609,0,0,1,2.849,2.153h.037a3.419,3.419,0,0,1,.525-.806,4.066,4.066,0,0,1,.768-.693,3.818,3.818,0,0,1,.955-.478A3.419,3.419,0,0,1,137.384,7a2.913,2.913,0,0,1,2.379.909,4.215,4.215,0,0,1,.749,2.726v5.5a.547.547,0,0,1-.618.618h-.581a.546.546,0,0,1-.463-.155.548.548,0,0,1-.154-.463V11.027a6.258,6.258,0,0,0-.063-.936,2.208,2.208,0,0,0-.243-.75,1.32,1.32,0,0,0-.507-.507,1.71,1.71,0,0,0-.852-.19,2.279,2.279,0,0,0-1.18.309,2.86,2.86,0,0,0-.89.823,3.825,3.825,0,0,0-.553,1.171,4.8,4.8,0,0,0-.19,1.33v3.855a.533.533,0,0,1-.018.247.538.538,0,0,1-.581.371h-.6a.538.538,0,0,1-.454-.159.531.531,0,0,1-.127-.212.542.542,0,0,1-.019-.247V11.021a6.771,6.771,0,0,0-.056-.9,2.3,2.3,0,0,0-.225-.76,1.292,1.292,0,0,0-.5-.524,1.682,1.682,0,0,0-.871-.2,2.312,2.312,0,0,0-1.208.317,2.936,2.936,0,0,0-.9.834,3.812,3.812,0,0,0-.553,1.171,4.715,4.715,0,0,0-.19,1.311v3.855a.546.546,0,0,1-.619.618h-.581a.546.546,0,0,1-.463-.155.548.548,0,0,1-.154-.463Z" transform="translate(-46.258 -2.564)" fill="#fff"/>
  <path id="Path_33" data-name="Path 33" d="M170.694,3.3a.545.545,0,0,1-.618-.618V2.064a.546.546,0,0,1,.618-.618h.637a.547.547,0,0,1,.6.368.558.558,0,0,1,.023.25v.618a.558.558,0,0,1-.023.25.55.55,0,0,1-.132.213.546.546,0,0,1-.463.155Zm-.6,2.51a.546.546,0,0,1,.618-.618h.581a.547.547,0,0,1,.6.368.558.558,0,0,1,.023.25V14.1a.557.557,0,0,1-.023.25.55.55,0,0,1-.132.214.546.546,0,0,1-.463.155h-.581a.545.545,0,0,1-.618-.618Z" transform="translate(-62.389 -0.528)" fill="#fff"/>
  <path id="Path_34" data-name="Path 34" d="M178.935,13.577a.546.546,0,0,1-.618.618h-.581a.547.547,0,0,1-.6-.368.559.559,0,0,1-.023-.25V.623a.558.558,0,0,1,.023-.25.546.546,0,0,1,.6-.368h.581a.546.546,0,0,1,.618.618Z" transform="translate(-64.972 0)" fill="#fff"/>
  <path id="Path_35" data-name="Path 35" d="M160.174,7.232h-.45q-.619,0-.619.525v.471a2.1,2.1,0,0,0,.037.372h-.037a2.289,2.289,0,0,0-.6-.787,3.519,3.519,0,0,0-.909-.553,3.611,3.611,0,0,0-1.452-.253c-2.528,0-4.234,1.8-4.234,5.046,0,2.986,1.682,4.939,4.076,4.939a3.3,3.3,0,0,0,3.118-1.611h.037a3.406,3.406,0,0,0-.037.384v.477q0,.524.619.524h.45a.547.547,0,0,0,.619-.619V7.853a.547.547,0,0,0-.619-.621Zm-3.8,8.184c-1.595,0-2.605-1.5-2.605-3.437,0-1.818.73-3.4,2.688-3.4,1.5,0,2.558,1.33,2.558,3.4C159.013,14.03,157.945,15.417,156.372,15.417Z" transform="translate(-55.728 -2.57)" fill="#fff"/>
  <path id="Path_36" data-name="Path 36" d="M96.861,10.3a2.565,2.565,0,0,0-1.683-.976,1.7,1.7,0,0,0-.246-.021c-.082,0-.168-.008-.227-.005h-.76a.288.288,0,0,0-.287.287v.466a.287.287,0,0,0,.287.287h.76a1.585,1.585,0,0,1,.165.007.841.841,0,0,1,.144.021,1.479,1.479,0,0,1,.935.612,1.54,1.54,0,0,1,.253,1.065,1.519,1.519,0,0,1-.528.968,1.376,1.376,0,0,1-.507.27,1.991,1.991,0,0,1-.64.063l-1.571.006c-1.047.005-2.094.009-3.142,0l-1.571-.006h-.687l-.073-.005a1.435,1.435,0,0,1-1.279-.995,1.551,1.551,0,0,1,.033-1.093,1.443,1.443,0,0,1,1.351-.912h.786c.84,0,1.6-.008,2.406,0l-.941,1.038a.233.233,0,0,0,.024.335l.306.253a.244.244,0,0,0,.342-.032l1.5-1.81a.472.472,0,0,0,0-.6l-1.5-1.809a.243.243,0,0,0-.342-.032l-.306.253a.232.232,0,0,0-.023.335l.941,1.039c-.807.005-1.563,0-2.406,0H87.59a2.713,2.713,0,0,0-.962.165,2.6,2.6,0,0,0-1.44,1.316,2.521,2.521,0,0,0-.063,1.967,2.6,2.6,0,0,0,2.31,1.632l.123.005h.688l1.571-.006c1.047-.007,2.094,0,3.142,0l1.571.006a3.326,3.326,0,0,0,.917-.082,2.666,2.666,0,0,0,.894-.422,2.534,2.534,0,0,0,.52-3.59Z" transform="translate(-31.165 -2.798)" fill="#5457ff"/>
</svg>
