<svg xmlns="http://www.w3.org/2000/svg" width="101.984" height="27.466" viewBox="0 0 101.984 27.466">
  <g id="mailchimp-vector-logo" transform="translate(-23.023 -243.315)">
    <g id="Group_4" data-name="Group 4" transform="translate(23.023 243.315)">
      <path id="Path_8" data-name="Path 8" d="M135.33,309.436h.561a1.579,1.579,0,0,0,0-1.054c-.119-.629-.306-1.054-.68-1-.374.068-.374.561-.255,1.19a1.518,1.518,0,0,0,.374.867Z" transform="translate(-115.875 -296.488)" fill="#fff"/>
      <g id="Group_2" data-name="Group 2" transform="translate(13.714 12.664)">
        <path id="Path_9" data-name="Path 9" d="M106.161,318.674c.255.119.442.187.493.119.068-.068,0-.119-.068-.255a1.467,1.467,0,0,0-.68-.561,1.827,1.827,0,0,0-1.869.255c-.187.119-.374.306-.306.442,0,.068.068.068.119.068a8.353,8.353,0,0,1,1.309-.306,2.238,2.238,0,0,1,1,.238Z" transform="translate(-103.716 -317.829)" fill="#fff"/>
        <path id="Path_10" data-name="Path 10" d="M110.567,324.558a1.2,1.2,0,0,0-.68.306c-.119.119-.187.187-.187.255v.068h.068a1.282,1.282,0,0,0,.255-.068,1.823,1.823,0,0,1,1.122-.119c.187,0,.255.068.306,0v-.119c-.017-.187-.391-.374-.884-.323Z" transform="translate(-108.683 -323.408)" fill="#fff"/>
      </g>
      <g id="Group_3" data-name="Group 3" transform="translate(14.712 12.013)">
        <path id="Path_11" data-name="Path 11" d="M110.659,316.243a2.179,2.179,0,0,0,0-1.241c-.119-.629-.306-1-.748-1-.374.068-.374.561-.255,1.241a3.941,3.941,0,0,0,.306.867c.323.51.51.374.7.136Z" transform="translate(-109.586 -314)" fill="#fff"/>
      </g>
      <path id="Path_12" data-name="Path 12" d="M129.183,327.567a.482.482,0,0,0,.629-.119.5.5,0,0,0-.306-.561.482.482,0,0,0-.629.119C128.741,327.193,128.928,327.448,129.183,327.567Z" transform="translate(-110.849 -312.631)" fill="#fff"/>
      <path id="Path_13" data-name="Path 13" d="M138.174,323.2c-.187,0-.374.187-.374.493,0,.255.119.493.374.493.187,0,.374-.187.374-.493C138.5,323.438,138.361,323.2,138.174,323.2Z" transform="translate(-118.293 -309.624)" fill="#fff"/>
      <path id="Path_14" data-name="Path 14" d="M47.481,336.442a.111.111,0,0,0-.187,0h-.187a.338.338,0,0,1-.306-.187.876.876,0,0,1,0-.561l.068-.119a1.526,1.526,0,0,0,.119-1.5,1.342,1.342,0,0,0-1-.748,1.2,1.2,0,0,0-1.122.442,1.752,1.752,0,0,0-.442,1.36.128.128,0,0,0,.119.119c.068,0,.187-.068.255-.255v-.068a.913.913,0,0,1,.187-.442.611.611,0,0,1,.493-.306.777.777,0,0,1,.629.119.764.764,0,0,1,.306.935,1.149,1.149,0,0,0-.255.816.932.932,0,0,0,.748.867c.306,0,.561-.187.561-.306.068-.1.017-.1.017-.17Z" transform="translate(-40.771 -318.022)" fill="#fff"/>
      <path id="Path_15" data-name="Path 15" d="M47.815,260.681a4.347,4.347,0,0,0-.187-.68l-.255-.561a2.012,2.012,0,0,0,.374-1.547,2.494,2.494,0,0,0-.561-1.122,4.2,4.2,0,0,0-1.988-1l-.493-.119s0-1.19-.068-1.683a4.991,4.991,0,0,0-.255-1.5,3.756,3.756,0,0,0-1.054-1.869,6.522,6.522,0,0,0,2.056-4.045c0-2.362-2.923-3.11-6.594-1.615l-.748.306s-1.36-1.36-1.428-1.36c-4.028-3.6-16.893,10.758-12.8,14.242l.867.748a4.554,4.554,0,0,0-.255,2.056,4.723,4.723,0,0,0,1.36,2.617,4.153,4.153,0,0,0,2.736,1.122,10.433,10.433,0,0,0,9.568,6.1c4.606.119,8.515-2.056,10.129-5.914a7.652,7.652,0,0,0,.561-2.617c.1-1.139-.527-1.564-.969-1.564Zm-18.9,2.923c-.119,0-.306.068-.442,0a3.372,3.372,0,0,1-3.042-2.8,2.783,2.783,0,0,1,2.175-3.178,1.785,1.785,0,0,1,.629-.068,2.717,2.717,0,0,1,2.362,2.481C30.836,261.735,30.48,263.35,28.916,263.6Zm-1.547-6.968a3.492,3.492,0,0,0-2.243,1.428,4.8,4.8,0,0,1-.935-.935c-.816-1.5.867-4.47,2.056-6.1,2.855-4.1,7.393-7.206,9.449-6.662a8.177,8.177,0,0,1,1.5,1.428,30.96,30.96,0,0,0-4.045,2.8A17.574,17.574,0,0,0,27.369,256.637Zm14.667,6.339.068-.068a.067.067,0,0,0-.068-.068A9.919,9.919,0,0,1,37.8,262.4c.255-.748.816-.493,1.733-.374a11.717,11.717,0,0,0,4.164-.442,9.5,9.5,0,0,0,3.11-1.547,7.055,7.055,0,0,1,.442,1.5.579.579,0,0,1,.442.068c.187.119.306.374.255,1a6.007,6.007,0,0,1-1.547,3.11,6.588,6.588,0,0,1-1.92,1.428,7.257,7.257,0,0,1-1.241.493c-3.365,1.054-6.713-.068-7.767-2.617a1.708,1.708,0,0,1-.187-.629,5.178,5.178,0,0,1,1.19-4.912h0a.453.453,0,0,0,.119-.306.4.4,0,0,0-.119-.255c-.442-.629-1.92-1.682-1.615-3.739a2.734,2.734,0,0,1,2.668-2.43h.306c.493,0,1,.119,1.36.119a3,3,0,0,0,2.107-.68,1.807,1.807,0,0,1,.816-.442.435.435,0,0,1,.306,0,.709.709,0,0,1,.493.187c.629.442.68,1.36.748,2.107,0,.442.068,1.428.068,1.682.068.629.187.748.561.867.187.068.374.119.629.187a3.963,3.963,0,0,1,1.615.748,1.156,1.156,0,0,1,.306.561c.119.68-.561,1.547-2.243,2.362a10.9,10.9,0,0,1-5.591.867l-.561-.068c-1.241-.187-1.92,1.428-1.19,2.481a4.059,4.059,0,0,0,3.042,1.19c2.991,0,5.285-1.241,6.1-2.362l.068-.119c.068-.068,0-.119-.068-.068a10.462,10.462,0,0,1-7.087,1.8,6.854,6.854,0,0,1-.748-.187,1.465,1.465,0,0,1-1-1,6.614,6.614,0,0,0,4.47,0Zm-4.232-.493Zm-5.1-11.438a11.669,11.669,0,0,1,3.416-2.8c.068,0,.068,0,.068.068a5.241,5.241,0,0,0-.306.748.067.067,0,0,0,.068.068,6.219,6.219,0,0,1,2.991-1.054.067.067,0,0,1,.068.068,3.368,3.368,0,0,0-.493.493.067.067,0,0,0,.068.068,5.237,5.237,0,0,1,2.481.68c.068,0,0,.119-.068.119a9.834,9.834,0,0,0-4.538,0,10.306,10.306,0,0,0-3.671,1.615c-.085-.017-.136-.017-.085-.068Z" transform="translate(-23.023 -243.315)" fill="#fff"/>
    </g>
    <g id="Group_5" data-name="Group 5" transform="translate(53.066 251.402)">
      <path id="Path_16" data-name="Path 16" d="M579.695,305.2a2.746,2.746,0,0,0-2.549,1.8c-.187.442-.187.561-.306.561-.187,0-.068-.374.068-.748a3.785,3.785,0,0,0,.068-1.428H574.8v10.452h2.991v-3.3a2.29,2.29,0,0,0,1.989,1.241c2.175,0,3.229-1.8,3.229-4.283-.017-2.8-1.326-4.3-3.314-4.3Zm-.8,6.594c-.68,0-1.19-.867-1.19-2.056s.493-2.056,1.19-2.056c.816,0,1.19.748,1.19,2.056-.017,1.377-.323,2.056-1.19,2.056Z" transform="translate(-511.069 -302.77)" fill="#fff"/>
      <path id="Path_17" data-name="Path 17" d="M209.3,293.994a2.576,2.576,0,0,0-2.243,1.683c-.187.374-.187.68-.374.68s-.068-.255-.187-.816a2.025,2.025,0,0,0-2.107-1.547,2.55,2.55,0,0,0-2.243,1.8c-.187.442-.187.561-.306.561-.187,0-.068-.374.068-.748a3.783,3.783,0,0,0,.068-1.428H199.8v8.209h2.923v-4.1c0-.816.306-1.8.935-1.8.68,0,.816.493.816,1.428v4.47h2.991v-4.1c0-.748.306-1.8.935-1.8.68,0,.816.748.816,1.428v4.419h2.855V297.5c-.034-2.124-.782-3.5-2.77-3.5Zm50.492,0a2.576,2.576,0,0,0-2.243,1.683c-.187.374-.187.68-.374.68s-.068-.306-.187-.816a2.025,2.025,0,0,0-2.107-1.547,2.55,2.55,0,0,0-2.243,1.8c-.187.442-.187.561-.306.561-.187,0-.068-.374.068-.748a3.783,3.783,0,0,0,.068-1.428h-2.175v8.209h2.991v-4.1c0-.816.306-1.8.935-1.8.68,0,.816.493.816,1.428v4.47h2.991v-4.1c0-.748.306-1.8.935-1.8.68,0,.816.748.816,1.428v4.419H262.7V297.5c-.17-2.124-.918-3.5-2.906-3.5Zm-42.658,0a9.579,9.579,0,0,0-3.926.816v2.481a8.039,8.039,0,0,1,3.3-1.054c1.19,0,1.309.629,1.241,1.19a7.811,7.811,0,0,0-1.36-.068c-2.43,0-3.671,1.122-3.671,2.855a2.35,2.35,0,0,0,2.549,2.362,2.791,2.791,0,0,0,2.668-1.682c.187-.374.187-.629.306-.629.187,0,.119.187.119.561a5.947,5.947,0,0,0,.119,1.547h2.26v-4.045c-.068-2.532-.935-4.334-3.6-4.334Zm-.748,6.475c-.68.187-1.054-.068-1.054-.493,0-.629.68-.935,1.615-.935a5.107,5.107,0,0,1,.816.068A2.3,2.3,0,0,1,216.387,300.469Zm9.194-8.769h2.991v10.69h-2.991Zm6.288,6.594c0-.748.68-1.428,1.92-1.428a5.753,5.753,0,0,1,2.736.816V294.81a4.494,4.494,0,0,0-2.991-.816,3.825,3.825,0,0,0-4.1,4.164c0,2.855,1.683,4.419,4.1,4.419a4.85,4.85,0,0,0,3.042-1.054v-2.736a5.494,5.494,0,0,1-2.736.867c-1.479.068-1.971-.612-1.971-1.36Zm10.69-4.3a2.748,2.748,0,0,0-2.481,1.92c-.119.306-.187.442-.306.442-.187,0-.068-.374,0-.561a10.268,10.268,0,0,0,.442-2.855,4.016,4.016,0,0,0-.119-1.241h-2.549v10.69h2.991v-4.1c0-.68.255-1.8,1-1.8.629,0,.816.442.816,1.36v4.538h2.991v-4.351c-.119-2.107-.425-4.045-2.787-4.045Zm3.671.187v8.209h2.991v-8.209a3.025,3.025,0,0,1-1.5.306,3.967,3.967,0,0,1-1.5-.306Z" transform="translate(-199.8 -291.564)" fill="#fff"/>
      <ellipse id="Ellipse_1" data-name="Ellipse 1" cx="1.801" cy="1.19" rx="1.801" ry="1.19" transform="translate(46.125)" fill="#fff"/>
      <path id="Path_18" data-name="Path 18" d="M328.5,306.3v8.209h2.974V306.3a3.025,3.025,0,0,1-1.5.306C329.979,306.555,328.5,306.3,328.5,306.3Z" transform="translate(-306.627 -303.683)" fill="#fff"/>
      <ellipse id="Ellipse_2" data-name="Ellipse 2" cx="1.801" cy="1.19" rx="1.801" ry="1.19" transform="translate(21.55)" fill="#fff"/>
    </g>
  </g>
</svg>
