<svg id="sendgrid-svgrepo-com" xmlns="http://www.w3.org/2000/svg" width="101.984" height="17.897" viewBox="0 0 101.984 17.897">
  <path id="Path_1" data-name="Path 1" d="M119.73,22.453a2.64,2.64,0,0,1,2.485-1.6,2.346,2.346,0,0,1,2.4,1.6Zm7.676,1.212a5.08,5.08,0,0,0-5.212-5.232,5.242,5.242,0,0,0-5.252,5.252,5.385,5.385,0,0,0,9.969,2.69l-2.2-1.309a2.672,2.672,0,0,1-2.42,1.447,2.554,2.554,0,0,1-2.687-1.838h7.8Zm56.342,0a2.606,2.606,0,0,0-2.586-2.707,2.72,2.72,0,1,0,2.586,2.707Zm-8,.02a4.928,4.928,0,0,1,4.909-5.252,4.048,4.048,0,0,1,3.01,1.192V13.989h2.767V28.736h-2.767V27.6a3.937,3.937,0,0,1-3.05,1.333,4.991,4.991,0,0,1-4.868-5.252ZM173.716,17.1a1.655,1.655,0,1,0-1.655-1.655,1.655,1.655,0,0,0,1.655,1.655Zm-1.384,1.537H175.1v10.1h-2.767V21.322h-1Zm-7.372,0h2.747v1.656a2.85,2.85,0,0,1,2.788-1.656h1.111l-1,2.687h-.754c-1.475,0-2.121.768-2.121,2.646v4.767H164.96Zm-15.569,2.727a7.418,7.418,0,0,1,7.535-7.575,7.665,7.665,0,0,1,5.347,2.038,7.337,7.337,0,0,1,1.36,1.739l-2.464,1.495a4.506,4.506,0,0,0-4.222-2.545,4.849,4.849,0,0,0,.1,9.7,4.108,4.108,0,0,0,4.182-3.091H156.6V20.433h7.656v1.131a7.113,7.113,0,0,1-7.212,7.373,7.445,7.445,0,0,1-7.656-7.575Zm-3.336,2.3a2.606,2.606,0,0,0-2.586-2.707,2.72,2.72,0,1,0,2.586,2.707Zm-8,.02a4.928,4.928,0,0,1,4.909-5.252,4.048,4.048,0,0,1,3.01,1.192V13.989h2.768V28.736h-2.768V27.6a3.937,3.937,0,0,1-3.05,1.333,4.991,4.991,0,0,1-4.868-5.252Zm-10-5.05H130.8v1.131a3.477,3.477,0,0,1,2.788-1.333c2.384,0,3.818,1.535,3.818,4.141v6.161H134.6v-5.8c0-1.353-.626-2.141-1.858-2.141-1.051,0-1.919.727-1.919,2.424v5.515h-2.768Zm-22.6,7.656,2.566-2.02a3.678,3.678,0,0,0,3.191,1.98,1.99,1.99,0,0,0,2.2-1.939c0-1.212-1.475-1.6-3.05-2.081-1.98-.606-4.182-1.373-4.182-4.2,0-2.363,2.061-4.242,4.909-4.242a6.318,6.318,0,0,1,4.97,2.141l-2.323,1.757a2.981,2.981,0,0,0-2.626-1.394c-1.313,0-2.02.707-2.02,1.636,0,1.131,1.414,1.515,2.989,2.04,2,.646,4.262,1.535,4.262,4.363,0,2.343-1.859,4.606-5.111,4.606a7.3,7.3,0,0,1-5.777-2.646Z" transform="translate(-84.451 -11.041)" fill="#fff"/>
  <g id="Group_1" data-name="Group 1">
    <path id="Path_2" data-name="Path 2" d="M17.695,0V11.8H11.8v5.9H0V5.9H5.9V0Z" fill="#9dd6e3"/>
    <path id="Path_3" data-name="Path 3" d="M0,65.121H5.9v-5.9H0Z" transform="translate(-0.001 -47.426)" fill="#3f72ab"/>
    <path id="Path_4" data-name="Path 4" d="M59.224,35.51h5.9v-5.9h-5.9Z" transform="translate(-47.427 -23.713)" fill="#00a9d1"/>
    <path id="Path_5" data-name="Path 5" d="M29.612,5.9h5.9V0h-5.9Z" transform="translate(-23.714)" fill="#00a9d1"/>
    <path id="Path_6" data-name="Path 6" d="M29.612,35.51h5.9v-5.9h-5.9Z" transform="translate(-23.714 -23.713)" fill="#2191c4"/>
    <path id="Path_7" data-name="Path 7" d="M59.224,5.9h5.9V0h-5.9Z" transform="translate(-47.427)" fill="#3f72ab"/>
  </g>
</svg>
