<svg xmlns="http://www.w3.org/2000/svg" width="20" height="20" viewBox="0 0 20 20">
  <g id="Group_61" data-name="Group 61" transform="translate(-2 -2)">
    <path id="Path_196" data-name="Path 196" d="M8,22H7a3,3,0,0,1-3-3V14a1,1,0,0,0-1-1,1,1,0,0,1,0-2,1,1,0,0,0,1-1V5A3,3,0,0,1,7,2H8A1,1,0,0,1,8,4H7A1,1,0,0,0,6,5v5a2.988,2.988,0,0,1-.766,2A2.988,2.988,0,0,1,6,14v5a1,1,0,0,0,1,1H8a1,1,0,0,1,0,2Z" fill="#d14d4d"/>
    <path id="Path_197" data-name="Path 197" d="M17,22H16a1,1,0,0,1,0-2h1a1,1,0,0,0,1-1V14a2.988,2.988,0,0,1,.766-2A2.988,2.988,0,0,1,18,10V5a1,1,0,0,0-1-1H16a1,1,0,0,1,0-2h1a3,3,0,0,1,3,3v5a1,1,0,0,0,1,1,1,1,0,0,1,0,2,1,1,0,0,0-1,1v5A3,3,0,0,1,17,22Z" fill="#d14d4d"/>
  </g>
</svg>
