<svg xmlns="http://www.w3.org/2000/svg" width="21.924" height="24.361" viewBox="0 0 21.924 24.361">
  <g id="Group_58" data-name="Group 58" transform="translate(-3 -2)">
    <path id="Line_1" data-name="Line 1" d="M19.706,1.436H.218A1.218,1.218,0,0,1,.218-1H19.706a1.218,1.218,0,0,1,0,2.436Z" transform="translate(4 10.308)" fill="#63c5da"/>
    <path id="Line_2" data-name="Line 2" d="M19.706,1.436H.218A1.218,1.218,0,0,1,.218-1H19.706a1.218,1.218,0,0,1,0,2.436Z" transform="translate(4 17.616)" fill="#63c5da"/>
    <path id="Line_3" data-name="Line 3" d="M.22,23.36a1.231,1.231,0,0,1-.136-.008A1.218,1.218,0,0,1-.993,22.008L1.444.084A1.218,1.218,0,0,1,3.865.353L1.429,22.277A1.218,1.218,0,0,1,.22,23.36Z" transform="translate(8.872 3)" fill="#63c5da"/>
    <path id="Line_4" data-name="Line 4" d="M.22,23.36a1.231,1.231,0,0,1-.136-.008A1.218,1.218,0,0,1-.993,22.008L1.444.084A1.218,1.218,0,0,1,3.865.353L1.429,22.277A1.218,1.218,0,0,1,.22,23.36Z" transform="translate(16.18 3)" fill="#63c5da"/>
  </g>
</svg>
