<svg xmlns="http://www.w3.org/2000/svg" width="21.924" height="13.952" viewBox="0 0 21.924 13.952">
  <g id="Group_56" data-name="Group 56" transform="translate(-1 -5)">
    <path id="Rectangle_24" data-name="Rectangle 24" d="M5.976-1h7.972a6.976,6.976,0,0,1,0,13.952H5.976A6.976,6.976,0,0,1,5.976-1Zm7.972,11.959a4.983,4.983,0,0,0,0-9.966H5.976a4.983,4.983,0,0,0,0,9.966Z" transform="translate(2 6)" fill="#8a79e0"/>
    <path id="Ellipse_5" data-name="Ellipse 5" d="M1.99-1A2.99,2.99,0,1,1-1,1.99,2.993,2.993,0,0,1,1.99-1Zm0,3.986a1,1,0,1,0-1-1A1,1,0,0,0,1.99,2.986Z" transform="translate(5.986 9.986)" fill="#8a79e0"/>
  </g>
</svg>
