<svg xmlns="http://www.w3.org/2000/svg" width="21.924" height="24.117" viewBox="0 0 21.924 24.117">
  <g id="Group_60" data-name="Group 60" transform="translate(-2 -1)">
    <path id="Path_196" data-name="Path 196" d="M12.192,19.577a1.1,1.1,0,0,1-1.1-1.1V15.192A1.1,1.1,0,1,1,11.1,13h1.1a1.1,1.1,0,0,1,1.1,1.1v4.385A1.1,1.1,0,0,1,12.192,19.577Z" transform="translate(0.77 1.155)" fill="#e5b73e"/>
    <path id="Path_197" data-name="Path 197" d="M16.1,7.577a1.1,1.1,0,0,1-1.1-1.1V2.1a1.1,1.1,0,0,1,2.192,0V6.481A1.1,1.1,0,0,1,16.1,7.577Z" transform="translate(1.251)" fill="#e5b73e"/>
    <path id="Path_198" data-name="Path 198" d="M22.828,11.192H3.1A1.1,1.1,0,1,1,3.1,9H22.828a1.1,1.1,0,1,1,0,2.192Z" transform="translate(0 0.77)" fill="#e5b73e"/>
    <path id="Path_199" data-name="Path 199" d="M8.1,7.577A1.1,1.1,0,0,1,7,6.481V2.1a1.1,1.1,0,1,1,2.192,0V6.481A1.1,1.1,0,0,1,8.1,7.577Z" transform="translate(0.481)" fill="#e5b73e"/>
    <path id="Rectangle_24" data-name="Rectangle 24" d="M2.289-1H17.636a3.292,3.292,0,0,1,3.289,3.289V17.636a3.292,3.292,0,0,1-3.289,3.289H2.289A3.292,3.292,0,0,1-1,17.636V2.289A3.292,3.292,0,0,1,2.289-1ZM17.636,18.732a1.1,1.1,0,0,0,1.1-1.1V2.289a1.1,1.1,0,0,0-1.1-1.1H2.289a1.1,1.1,0,0,0-1.1,1.1V17.636a1.1,1.1,0,0,0,1.1,1.1Z" transform="translate(3 4.192)" fill="#e5b73e"/>
  </g>
</svg>
