<svg xmlns="http://www.w3.org/2000/svg" width="21.924" height="15.347" viewBox="0 0 21.924 15.347">
  <g id="Group_57" data-name="Group 57" transform="translate(-2 -5)">
    <path id="Path_196" data-name="Path 196" d="M3.107,13.192H3.1A1.1,1.1,0,1,1,3.1,11h.011a1.1,1.1,0,1,1,0,2.192Z" transform="translate(0 0.577)" fill="#fff"/>
    <path id="Path_197" data-name="Path 197" d="M3.107,19.192H3.1A1.1,1.1,0,1,1,3.1,17h.011a1.1,1.1,0,1,1,0,2.192Z" transform="translate(0 1.155)" fill="#fff"/>
    <path id="Path_198" data-name="Path 198" d="M3.107,7.192H3.1A1.1,1.1,0,1,1,3.1,5h.011a1.1,1.1,0,1,1,0,2.192Z" fill="#fff"/>
    <path id="Path_199" data-name="Path 199" d="M22.347,13.192H8.1A1.1,1.1,0,1,1,8.1,11H22.347a1.1,1.1,0,1,1,0,2.192Z" transform="translate(0.481 0.577)" fill="#fff"/>
    <path id="Path_200" data-name="Path 200" d="M22.347,19.192H8.1A1.1,1.1,0,1,1,8.1,17H22.347a1.1,1.1,0,1,1,0,2.192Z" transform="translate(0.481 1.155)" fill="#fff"/>
    <path id="Path_201" data-name="Path 201" d="M22.347,7.192H8.1A1.1,1.1,0,0,1,8.1,5H22.347a1.1,1.1,0,1,1,0,2.192Z" transform="translate(0.481)" fill="#fff"/>
  </g>
</svg>
