<svg xmlns="http://www.w3.org/2000/svg" width="21.925" height="22.003" viewBox="0 0 21.925 22.003">
  <g id="Group_53" data-name="Group 53" transform="translate(-1 -0.997)">
    <path id="Path_196" data-name="Path 196" d="M9.741,17a1.011,1.011,0,0,1-.108-.006,1,1,0,0,1-.888-1.1C8.9,14.41,9,12.955,9,12a3,3,0,0,1,3-3,1,1,0,0,1,0,2,1,1,0,0,0-1,1c0,1.037-.1,2.534-.266,4.107A1,1,0,0,1,9.741,17Z" fill="#f007d5"/>
    <path id="Path_197" data-name="Path 197" d="M13,23a1,1,0,0,1-.928-1.372C13,19.307,13,15.434,13,13.12a1,1,0,0,1,2,0c0,2.458,0,6.573-1.072,9.251A1,1,0,0,1,13,23Z" fill="#f007d5"/>
    <path id="Path_198" data-name="Path 198" d="M17.291,22.02a1,1,0,0,1-.982-1.2c.137-.684.424-2.289.485-2.921a1,1,0,0,1,1.991.194c-.078.8-.409,2.592-.515,3.119A1,1,0,0,1,17.291,22.02Z" fill="#f007d5"/>
    <path id="Path_199" data-name="Path 199" d="M2,13a1,1,0,0,1-1-1A11,11,0,0,1,20.8,5.4a1,1,0,1,1-1.6,1.2A9,9,0,0,0,3,12,1,1,0,0,1,2,13Z" fill="#f007d5"/>
    <path id="Path_200" data-name="Path 200" d="M2.01,17H2a1,1,0,0,1,0-2h.01a1,1,0,0,1,0,2Z" fill="#f007d5"/>
    <path id="Path_201" data-name="Path 201" d="M21.8,17q-.05,0-.1-.005a1,1,0,0,1-.9-1.095,35.26,35.26,0,0,0,.015-5.7,1,1,0,1,1,1.96-.4,35.551,35.551,0,0,1,.015,6.3A1,1,0,0,1,21.8,17Z" fill="#f007d5"/>
    <path id="Path_202" data-name="Path 202" d="M5,20.5a1,1,0,0,1-.949-1.316A26.318,26.318,0,0,0,5,12a6.98,6.98,0,0,1,.4-2.332,1,1,0,0,1,1.887.664A4.987,4.987,0,0,0,7,12a28.028,28.028,0,0,1-1.051,7.818A1,1,0,0,1,5,20.5Z" fill="#f007d5"/>
    <path id="Path_203" data-name="Path 203" d="M8.65,23A1,1,0,0,1,7.7,21.7c.041-.129.083-.258.125-.387a11.1,11.1,0,0,0,.413-1.483,1,1,0,0,1,1.97.348,12.763,12.763,0,0,1-.481,1.757c-.041.124-.081.248-.121.372A1,1,0,0,1,8.65,23Z" fill="#f007d5"/>
    <path id="Path_204" data-name="Path 204" d="M18,15a1,1,0,0,1-1-1V12A5,5,0,0,0,9.5,7.666a1,1,0,0,1-1-1.732A7,7,0,0,1,19,12v2A1,1,0,0,1,18,15Z" fill="#f007d5"/>
  </g>
</svg>
