<svg xmlns="http://www.w3.org/2000/svg" width="21.924" height="18.935" viewBox="0 0 21.924 18.935">
  <g id="Group_59" data-name="Group 59" transform="translate(-1 -2)">
    <path id="Path_196" data-name="Path 196" d="M19.935,20.935H3.99A2.993,2.993,0,0,1,1,17.945V4.99A2.993,2.993,0,0,1,3.99,2H7.906A2.982,2.982,0,0,1,10.4,3.341l.8,1.191.006.009a.994.994,0,0,0,.832.449h7.892a2.993,2.993,0,0,1,2.99,2.99v9.966A2.993,2.993,0,0,1,19.935,20.935ZM3.99,3.993a1,1,0,0,0-1,1V17.945a1,1,0,0,0,1,1H19.935a1,1,0,0,0,1-1V7.979a1,1,0,0,0-1-1H12.042a2.982,2.982,0,0,1-2.494-1.34l-.8-1.191-.006-.009a.994.994,0,0,0-.832-.448Z" fill="#e08650"/>
    <path id="Path_197" data-name="Path 197" d="M12,16.972a1,1,0,0,1-1-1V10a1,1,0,0,1,1.993,0v5.979A1,1,0,0,1,12,16.972Z" transform="translate(-0.034 -0.024)" fill="#e08650"/>
    <path id="Path_198" data-name="Path 198" d="M14.976,13.983a.993.993,0,0,1-.7-.292l-2.285-2.285L9.7,13.691a1,1,0,1,1-1.409-1.409l2.99-2.99a1,1,0,0,1,1.409,0l2.99,2.99a1,1,0,0,1-.7,1.7Z" transform="translate(-0.024 -0.024)" fill="#e08650"/>
  </g>
</svg>
