<svg xmlns="http://www.w3.org/2000/svg" width="21.925" height="12.059" viewBox="0 0 21.925 12.059">
  <g id="Group_54" data-name="Group 54" transform="translate(-2 -6)">
    <path id="Path_205" data-name="Path 205" d="M21.577,15.192H16.1A1.1,1.1,0,0,1,16.1,13h5.481a1.1,1.1,0,0,1,0,2.192Z" transform="translate(1.251 0.674)" fill="#0bf07d"/>
    <path id="Path_206" data-name="Path 206" d="M21.577,17.77a1.1,1.1,0,0,1-1.1-1.1V12.837a1.644,1.644,0,0,0-3.289,0v3.837a1.1,1.1,0,1,1-2.192,0V12.837a3.837,3.837,0,1,1,7.674,0v3.837A1.1,1.1,0,0,1,21.577,17.77Z" transform="translate(1.251 0.289)" fill="#0bf07d"/>
    <path id="Path_207" data-name="Path 207" d="M11.174,14.192H4.6A1.1,1.1,0,1,1,4.6,12h6.577a1.1,1.1,0,1,1,0,2.192Z" transform="translate(0.144 0.577)" fill="#0bf07d"/>
    <path id="Path_208" data-name="Path 208" d="M12.963,18.059a1.1,1.1,0,0,1-.981-.606l-3.952-7.9-3.952,7.9a1.1,1.1,0,1,1-1.961-.98L7.049,6.606a1.1,1.1,0,0,1,1.961,0l4.933,9.866a1.1,1.1,0,0,1-.98,1.587Z" transform="translate(0)" fill="#0bf07d"/>
  </g>
</svg>
