<svg xmlns="http://www.w3.org/2000/svg" width="17.65" height="22.062" viewBox="0 0 17.65 22.062">
  <g id="user" transform="translate(-4 -2)">
    <path id="Path_196" data-name="Path 196" d="M20.547,22.825a1.1,1.1,0,0,1-1.1-1.1V19.516a3.313,3.313,0,0,0-3.309-3.309H9.516a3.309,3.309,0,0,0-3.309,3.309v2.206a1.1,1.1,0,1,1-2.206,0V19.516A5.516,5.516,0,0,1,9.516,14h6.619a5.522,5.522,0,0,1,5.516,5.516v2.206A1.1,1.1,0,0,1,20.547,22.825Z" transform="translate(0 1.237)" fill="#57d884"/>
    <path id="Ellipse_5" data-name="Ellipse 5" d="M4.516-1A5.516,5.516,0,1,1-1,4.516,5.522,5.522,0,0,1,4.516-1Zm0,8.825A3.309,3.309,0,1,0,1.206,4.516,3.313,3.313,0,0,0,4.516,7.825Z" transform="translate(8.309 3)" fill="#57d884"/>
  </g>
</svg>
